# 3ds Max Wavefront OBJ Exporter v0.94b - (c)2007 guruware
# File Created: 30.08.2009 18:40:51

mtllib exit.mtl

#
# object Object03
#

v  -10.0177 -10.0177 -2.0287
v  -10.0177 10.0177 -2.0287
v  10.0177 10.0177 -2.0287
v  10.0177 -10.0177 -2.0287
v  -9.0177 -9.0177 2.0287
v  9.0177 -9.0177 2.0287
v  9.0177 9.0177 2.0287
v  -9.0177 9.0177 2.0287
v  10.0177 -10.0177 1.3410
v  -10.0177 -10.0177 1.3410
v  10.0177 10.0177 1.3410
v  -10.0177 10.0177 1.3410
# 12 vertices

vn 0.0000 0.0000 -1.0000
vn 0.0000 0.0000 -1.0000
vn 0.0000 0.0000 -1.0000
vn 0.0000 0.0000 -1.0000
vn 0.0000 0.0000 -1.0000
vn 0.0000 0.0000 -1.0000
vn 0.0000 0.0000 1.0000
vn 0.0000 0.0000 1.0000
vn 0.0000 0.0000 1.0000
vn 0.0000 0.0000 1.0000
vn 0.0000 0.0000 1.0000
vn 0.0000 0.0000 1.0000
vn 0.0000 -1.0000 0.0000
vn 0.0000 -1.0000 0.0000
vn 0.0000 -1.0000 0.0000
vn 0.0000 -1.0000 0.0000
vn 0.0000 -1.0000 0.0000
vn 0.0000 -1.0000 0.0000
vn 1.0000 0.0000 0.0000
vn 1.0000 0.0000 0.0000
vn 1.0000 0.0000 0.0000
vn 1.0000 0.0000 0.0000
vn 1.0000 0.0000 0.0000
vn 1.0000 0.0000 0.0000
vn 0.0000 1.0000 0.0000
vn 0.0000 1.0000 0.0000
vn 0.0000 1.0000 0.0000
vn 0.0000 1.0000 0.0000
vn 0.0000 1.0000 0.0000
vn 0.0000 1.0000 0.0000
vn -1.0000 0.0000 0.0000
vn -1.0000 0.0000 0.0000
vn -1.0000 0.0000 0.0000
vn -1.0000 0.0000 0.0000
vn -1.0000 0.0000 0.0000
vn -1.0000 0.0000 0.0000
vn 0.3092 -0.3092 0.8993
vn 0.3092 -0.3092 0.8993
vn -0.3092 -0.3092 0.8993
vn -0.3092 -0.3092 0.8993
vn -0.3092 -0.3092 0.8993
vn 0.3092 -0.3092 0.8993
vn 0.3092 0.3092 0.8993
vn 0.3092 0.3092 0.8993
vn 0.3092 -0.3092 0.8993
vn 0.3092 -0.3092 0.8993
vn 0.3092 -0.3092 0.8993
vn 0.3092 0.3092 0.8993
vn -0.3092 0.3092 0.8993
vn -0.3092 0.3092 0.8993
vn 0.3092 0.3092 0.8993
vn 0.3092 0.3092 0.8993
vn 0.3092 0.3092 0.8993
vn -0.3092 0.3092 0.8993
vn -0.3092 -0.3092 0.8993
vn -0.3092 -0.3092 0.8993
vn -0.3092 0.3092 0.8993
vn -0.3092 0.3092 0.8993
vn -0.3092 0.3092 0.8993
vn -0.3092 -0.3092 0.8993
# 60 vertex normals

vt 0.8298 0.7625 0.0000
vt 0.8296 0.6416 0.0000
vt 0.9506 0.6414 0.0000
vt 0.9507 0.7624 0.0000
vt 0.8223 0.6342 0.0000
vt 0.9579 0.6341 0.0000
vt 0.8229 0.7928 0.0000
vt 0.9577 0.7926 0.0000
vt 0.9804 0.7926 0.0000
vt 0.9806 0.9274 0.0000
vt 0.9579 0.9274 0.0000
vt 0.9579 0.9501 0.0000
vt 0.8231 0.9504 0.0000
vt 0.8231 0.9277 0.0000
vt 0.8004 0.9277 0.0000
vt 0.8002 0.7929 0.0000
vt 0.8226 0.7699 0.0000
vt 0.9579 0.7697 0.0000
# 18 texture coords

g Object03
usemtl wire_143224087
s 1
f 3/11/1 4/14/2 1/7/3 
f 1/7/4 2/8/5 3/11/6 
s 4
f 7/3/7 8/4/8 5/1/9 
f 5/1/10 6/2/11 7/3/12 
s 2
f 9/15/13 10/16/14 1/7/15 
f 1/7/16 4/14/17 9/15/18 
s 4
f 11/12/19 9/13/20 4/14/21 
f 4/14/22 3/11/23 11/12/24 
s 2
f 12/9/25 11/10/26 3/11/27 
f 3/11/28 2/8/29 12/9/30 
s 4
f 10/17/31 12/18/32 2/8/33 
f 2/8/34 1/7/35 10/17/36 
s 1
f 9/5/37 6/2/38 5/1/39 
f 5/1/40 10/17/41 9/5/42 
f 11/6/43 7/3/44 6/2/45 
f 6/2/46 9/5/47 11/6/48 
f 12/18/49 8/4/50 7/3/51 
f 7/3/52 11/6/53 12/18/54 
f 10/17/55 5/1/56 8/4/57 
f 8/4/58 12/18/59 10/17/60 
# 20 faces

