# 3ds Max Wavefront OBJ Exporter v0.94b - (c)2007 guruware
# File Created: 30.08.2009 18:52:48

mtllib hardware5.mtl

#
# object Object05
#

v  -10.0177 -10.0177 -6.4222
v  -10.0177 10.0177 -6.4222
v  10.0177 10.0177 -6.4222
v  10.0177 -10.0177 -6.4222
v  10.0177 -10.0177 5.6385
v  -10.0177 -10.0177 5.6385
v  10.0177 10.0177 5.6385
v  -10.0177 10.0177 5.6385
v  6.2729 -6.2729 6.4223
v  -6.2729 -6.2729 6.4223
v  6.2729 6.2729 6.4223
v  -6.2729 6.2729 6.4223
# 12 vertices

vn 0.0000 0.0000 -1.0000
vn 0.0000 0.0000 -1.0000
vn 0.0000 0.0000 -1.0000
vn 0.0000 0.0000 -1.0000
vn 0.0000 0.0000 -1.0000
vn 0.0000 0.0000 -1.0000
vn 0.0000 -1.0000 0.0000
vn 0.0000 -1.0000 0.0000
vn 0.0000 -1.0000 0.0000
vn 0.0000 -1.0000 0.0000
vn 0.0000 -1.0000 0.0000
vn 0.0000 -1.0000 0.0000
vn 1.0000 0.0000 0.0000
vn 1.0000 0.0000 0.0000
vn 1.0000 0.0000 0.0000
vn 1.0000 0.0000 0.0000
vn 1.0000 0.0000 0.0000
vn 1.0000 0.0000 0.0000
vn 0.0000 1.0000 0.0000
vn 0.0000 1.0000 0.0000
vn 0.0000 1.0000 0.0000
vn 0.0000 1.0000 0.0000
vn 0.0000 1.0000 0.0000
vn 0.0000 1.0000 0.0000
vn -1.0000 0.0000 0.0000
vn -1.0000 0.0000 0.0000
vn -1.0000 0.0000 0.0000
vn -1.0000 0.0000 0.0000
vn -1.0000 0.0000 0.0000
vn -1.0000 0.0000 0.0000
vn 0.1035 -0.1035 0.9892
vn -0.1035 -0.1035 0.9892
vn -0.1035 -0.1035 0.9892
vn -0.1035 -0.1035 0.9892
vn 0.1035 -0.1035 0.9892
vn 0.1035 -0.1035 0.9892
vn 0.1035 0.1035 0.9892
vn 0.1035 -0.1035 0.9892
vn 0.1035 -0.1035 0.9892
vn 0.1035 -0.1035 0.9892
vn 0.1035 0.1035 0.9892
vn 0.1035 0.1035 0.9892
vn -0.1035 0.1035 0.9892
vn 0.1035 0.1035 0.9892
vn 0.1035 0.1035 0.9892
vn 0.1035 0.1035 0.9892
vn -0.1035 0.1035 0.9892
vn -0.1035 0.1035 0.9892
vn -0.1035 -0.1035 0.9892
vn -0.1035 0.1035 0.9892
vn -0.1035 0.1035 0.9892
vn -0.1035 0.1035 0.9892
vn -0.1035 -0.1035 0.9892
vn -0.1035 -0.1035 0.9892
vn 0.0000 0.0000 1.0000
vn 0.0000 0.0000 1.0000
vn 0.0000 0.0000 1.0000
vn 0.0000 0.0000 1.0000
vn 0.0000 0.0000 1.0000
vn 0.0000 0.0000 1.0000
# 60 vertex normals

vt 0.3448 0.1476 0.0000
vt 0.4291 0.1476 0.0000
vt 0.3448 0.0634 0.0000
vt 0.4291 0.0634 0.0000
vt 0.3194 0.0379 0.0000
vt 0.4545 0.0379 0.0000
vt 0.4545 0.1731 0.0000
vt 0.3194 0.1731 0.0000
vt 0.5933 0.7659 0.0000
vt 0.5121 0.7658 0.0000
vt 0.5124 0.6310 0.0000
vt 0.5935 0.6311 0.0000
vt 0.5937 0.5500 0.0000
vt 0.7285 0.5503 0.0000
vt 0.7283 0.6314 0.0000
vt 0.8095 0.6316 0.0000
vt 0.8092 0.7664 0.0000
vt 0.7281 0.7662 0.0000
vt 0.7279 0.8473 0.0000
vt 0.5931 0.8471 0.0000
# 20 texture coords

g Object05
usemtl wire_143224087
s 1
f 3/15/1 4/18/2 1/9/3 
f 1/9/4 2/12/5 3/15/6 
s 2
f 5/19/7 6/20/8 1/9/9 
f 1/9/10 4/18/11 5/19/12 
s 4
f 7/16/13 5/17/14 4/18/15 
f 4/18/16 3/15/17 7/16/18 
s 2
f 8/13/19 7/14/20 3/15/21 
f 3/15/22 2/12/23 8/13/24 
s 4
f 6/10/25 8/11/26 2/12/27 
f 2/12/28 1/9/29 6/10/30 
s 1
f 9/1/31 10/2/32 6/7/33 
f 6/7/34 5/8/35 9/1/36 
f 11/3/37 9/1/38 5/8/39 
f 5/8/40 7/5/41 11/3/42 
f 12/4/43 11/3/44 7/5/45 
f 7/5/46 8/6/47 12/4/48 
f 10/2/49 12/4/50 8/6/51 
f 8/6/52 6/7/53 10/2/54 
s 16
f 10/2/55 9/1/56 11/3/57 
f 11/3/58 12/4/59 10/2/60 
# 20 faces

