# 3ds Max Wavefront OBJ Exporter v0.94b - (c)2007 guruware
# File Created: 30.08.2009 18:51:53

mtllib hardware3.mtl

#
# object Object16
#

v  -10.0177 -10.0177 -6.4222
v  -10.0177 10.0177 -6.4222
v  10.0177 10.0177 -6.4222
v  10.0177 -10.0177 -6.4222
v  10.0209 -10.0177 5.6385
v  -10.0145 -10.0177 5.6385
v  10.0209 10.0177 5.6385
v  -10.0145 10.0177 5.6385
v  -6.2666 6.2729 6.4223
v  -3.4816 3.4877 5.9742
v  0.0058 4.9295 6.0505
v  0.0006 6.2729 6.4223
v  6.2793 6.2729 6.4223
v  3.4974 3.4877 5.9742
v  4.9393 -0.0055 6.0505
v  6.2793 -0.0094 6.4223
v  -6.2666 -6.2729 6.4223
v  -3.4816 -3.4913 5.9742
v  -4.9233 0.0003 6.0505
v  -6.2666 0.0054 6.4223
v  6.2793 -6.2729 6.4223
v  3.4974 -3.4913 5.9742
v  0.0067 -4.9331 6.0505
v  0.0030 -6.2729 6.4223
v  0.0095 -0.0037 9.8465
v  0.0095 3.4875 8.4005
v  -2.4591 2.4650 8.4005
v  -3.4817 -0.0037 8.4005
v  -2.4591 -2.4723 8.4005
v  0.0095 -3.4948 8.4005
v  2.4781 -2.4723 8.4005
v  3.5006 -0.0037 8.4005
v  2.4781 2.4650 8.4005
# 33 vertices

vn 0.0000 0.0000 -1.0000
vn 0.0000 0.0000 -1.0000
vn 0.0000 0.0000 -1.0000
vn 0.0000 0.0000 -1.0000
vn 0.0000 0.0000 -1.0000
vn 0.0000 0.0000 -1.0000
vn 0.0000 -1.0000 0.0000
vn 0.0000 -1.0000 0.0000
vn 0.0000 -1.0000 0.0000
vn 0.0000 -1.0000 0.0000
vn 0.0000 -1.0000 0.0000
vn 0.0000 -1.0000 0.0000
vn 1.0000 0.0000 -0.0003
vn 1.0000 0.0000 -0.0003
vn 1.0000 0.0000 -0.0003
vn 1.0000 0.0000 -0.0003
vn 1.0000 0.0000 -0.0003
vn 1.0000 0.0000 -0.0003
vn 0.0000 1.0000 0.0000
vn 0.0000 1.0000 0.0000
vn 0.0000 1.0000 0.0000
vn 0.0000 1.0000 0.0000
vn 0.0000 1.0000 0.0000
vn 0.0000 1.0000 0.0000
vn -1.0000 0.0000 0.0003
vn -1.0000 0.0000 0.0003
vn -1.0000 0.0000 0.0003
vn -1.0000 0.0000 0.0003
vn -1.0000 0.0000 0.0003
vn -1.0000 0.0000 0.0003
vn -0.0397 -0.2455 0.9686
vn -0.0253 -0.2437 0.9695
vn 0.0913 -0.0838 0.9923
vn 0.0913 -0.0838 0.9923
vn 0.1036 -0.0710 0.9921
vn -0.0397 -0.2455 0.9686
vn -0.2458 0.0396 0.9685
vn -0.2440 0.0255 0.9694
vn -0.0839 -0.0914 0.9923
vn -0.0839 -0.0914 0.9923
vn -0.0711 -0.1036 0.9921
vn -0.2458 0.0396 0.9685
vn 0.2452 -0.0394 0.9687
vn 0.2435 -0.0254 0.9696
vn 0.0839 0.0914 0.9923
vn 0.0839 0.0914 0.9923
vn 0.0710 0.1037 0.9921
vn 0.2452 -0.0394 0.9687
vn 0.0396 0.2458 0.9685
vn 0.0255 0.2441 0.9694
vn -0.0914 0.0839 0.9923
vn -0.0914 0.0839 0.9923
vn -0.1037 0.0711 0.9921
vn 0.0396 0.2458 0.9685
vn 0.1036 -0.1035 0.9892
vn 0.0000 -0.2048 0.9788
vn -0.1035 -0.1035 0.9892
vn -0.1035 -0.1035 0.9892
vn 0.1035 -0.1036 0.9892
vn 0.1036 -0.1035 0.9892
vn -0.1035 -0.1035 0.9892
vn 0.0000 -0.2048 0.9788
vn -0.1034 -0.1035 0.9892
vn 0.1036 0.1035 0.9892
vn 0.2050 0.0000 0.9788
vn 0.1035 -0.1036 0.9892
vn 0.1035 -0.1036 0.9892
vn 0.1035 0.1036 0.9892
vn 0.1036 0.1035 0.9892
vn 0.1035 -0.1036 0.9892
vn 0.2050 0.0000 0.9788
vn 0.1036 -0.1035 0.9892
vn -0.1034 0.1035 0.9892
vn 0.0000 0.2048 0.9788
vn 0.1035 0.1036 0.9892
vn 0.1035 0.1036 0.9892
vn -0.1035 0.1035 0.9892
vn -0.1034 0.1035 0.9892
vn 0.1035 0.1036 0.9892
vn 0.0000 0.2048 0.9788
vn 0.1036 0.1035 0.9892
vn -0.1034 -0.1035 0.9892
vn -0.2047 0.0000 0.9788
vn -0.1035 0.1035 0.9892
vn -0.1035 0.1035 0.9892
vn -0.1035 -0.1035 0.9892
vn -0.1034 -0.1035 0.9892
vn -0.1035 0.1035 0.9892
vn -0.2047 0.0000 0.9788
vn -0.1034 0.1035 0.9892
vn 0.1036 -0.0710 0.9921
vn 0.0913 -0.0838 0.9923
vn 0.2435 -0.0254 0.9696
vn 0.2435 -0.0254 0.9696
vn 0.2452 -0.0394 0.9687
vn 0.1036 -0.0710 0.9921
vn -0.1037 0.0711 0.9921
vn -0.0914 0.0839 0.9923
vn -0.2440 0.0255 0.9694
vn -0.2440 0.0255 0.9694
vn -0.2458 0.0396 0.9685
vn -0.1037 0.0711 0.9921
vn -0.0711 -0.1036 0.9921
vn -0.0839 -0.0914 0.9923
vn -0.0253 -0.2437 0.9695
vn -0.0253 -0.2437 0.9695
vn -0.0397 -0.2455 0.9686
vn -0.0711 -0.1036 0.9921
vn 0.0710 0.1037 0.9921
vn 0.0839 0.0914 0.9923
vn 0.0255 0.2441 0.9694
vn 0.0255 0.2441 0.9694
vn 0.0396 0.2458 0.9685
vn 0.0710 0.1037 0.9921
vn 0.0000 -0.0000 1.0000
vn -0.0019 0.6903 0.7235
vn -0.4889 0.4918 0.7205
vn 0.0000 -0.0000 1.0000
vn -0.4889 0.4918 0.7205
vn -0.6903 -0.0022 0.7235
vn 0.0000 -0.0000 1.0000
vn -0.6903 -0.0022 0.7235
vn -0.4919 -0.4892 0.7202
vn 0.0000 -0.0000 1.0000
vn -0.4919 -0.4892 0.7202
vn 0.0022 -0.6907 0.7231
vn 0.0000 -0.0000 1.0000
vn 0.0022 -0.6907 0.7231
vn 0.4893 -0.4922 0.7200
vn 0.0000 -0.0000 1.0000
vn 0.4893 -0.4922 0.7200
vn 0.6906 0.0021 0.7232
vn 0.0000 -0.0000 1.0000
vn 0.6906 0.0021 0.7232
vn 0.4920 0.4891 0.7202
vn 0.0000 -0.0000 1.0000
vn 0.4920 0.4891 0.7202
vn -0.0019 0.6903 0.7235
vn -0.0019 0.6903 0.7235
vn -0.0022 0.8535 0.5210
vn -0.6053 0.6078 0.5140
vn -0.6053 0.6078 0.5140
vn -0.4889 0.4918 0.7205
vn -0.0019 0.6903 0.7235
vn -0.4889 0.4918 0.7205
vn -0.6053 0.6078 0.5140
vn -0.8537 -0.0014 0.5208
vn -0.8537 -0.0014 0.5208
vn -0.6903 -0.0022 0.7235
vn -0.4889 0.4918 0.7205
vn -0.6903 -0.0022 0.7235
vn -0.8537 -0.0014 0.5208
vn -0.6083 -0.6054 0.5133
vn -0.6083 -0.6054 0.5133
vn -0.4919 -0.4892 0.7202
vn -0.6903 -0.0022 0.7235
vn -0.4919 -0.4892 0.7202
vn -0.6083 -0.6054 0.5133
vn 0.0016 -0.8542 0.5200
vn 0.0016 -0.8542 0.5200
vn 0.0022 -0.6907 0.7231
vn -0.4919 -0.4892 0.7202
vn 0.0022 -0.6907 0.7231
vn 0.0016 -0.8542 0.5200
vn 0.6057 -0.6085 0.5127
vn 0.6057 -0.6085 0.5127
vn 0.4893 -0.4922 0.7200
vn 0.0022 -0.6907 0.7231
vn 0.4893 -0.4922 0.7200
vn 0.6057 -0.6085 0.5127
vn 0.8542 0.0015 0.5200
vn 0.8542 0.0015 0.5200
vn 0.6906 0.0021 0.7232
vn 0.4893 -0.4922 0.7200
vn 0.6906 0.0021 0.7232
vn 0.8542 0.0015 0.5200
vn 0.6080 0.6057 0.5133
vn 0.6080 0.6057 0.5133
vn 0.4920 0.4891 0.7202
vn 0.6906 0.0021 0.7232
vn 0.4920 0.4891 0.7202
vn 0.6080 0.6057 0.5133
vn -0.0022 0.8535 0.5210
vn -0.0022 0.8535 0.5210
vn -0.0019 0.6903 0.7235
vn 0.4920 0.4891 0.7202
# 186 vertex normals

vt 0.5933 0.7659 0.0000
vt 0.5121 0.7658 0.0000
vt 0.5124 0.6310 0.0000
vt 0.5935 0.6311 0.0000
vt 0.5937 0.5500 0.0000
vt 0.7285 0.5503 0.0000
vt 0.7283 0.6314 0.0000
vt 0.8095 0.6316 0.0000
vt 0.8092 0.7664 0.0000
vt 0.7281 0.7662 0.0000
vt 0.7279 0.8473 0.0000
vt 0.5931 0.8471 0.0000
vt 0.2828 0.0610 0.0000
vt 0.2655 0.0784 0.0000
vt 0.2394 0.0681 0.0000
vt 0.2394 0.0607 0.0000
vt 0.1963 0.0620 0.0000
vt 0.2136 0.0792 0.0000
vt 0.2033 0.1054 0.0000
vt 0.1959 0.1054 0.0000
vt 0.2837 0.1475 0.0000
vt 0.2664 0.1303 0.0000
vt 0.2766 0.1041 0.0000
vt 0.2840 0.1041 0.0000
vt 0.1972 0.1484 0.0000
vt 0.2144 0.1311 0.0000
vt 0.2406 0.1414 0.0000
vt 0.2406 0.1488 0.0000
vt 0.3081 0.1727 0.0000
vt 0.3080 0.0366 0.0000
vt 0.1720 0.1728 0.0000
vt 0.1719 0.0367 0.0000
vt 0.0786 0.9244 0.0000
vt 0.0524 0.9142 0.0000
vt 0.0266 0.9253 0.0000
vt 0.0164 0.9515 0.0000
vt 0.0794 0.9764 0.0000
vt 0.0896 0.9502 0.0000
vt 0.0275 0.9772 0.0000
vt 0.0536 0.9874 0.0000
vt 0.0530 0.9508 0.0000
vt 0.0526 0.9295 0.0000
vt 0.0677 0.9355 0.0000
vt 0.0743 0.9504 0.0000
vt 0.0683 0.9655 0.0000
vt 0.0534 0.9722 0.0000
vt 0.0383 0.9661 0.0000
vt 0.0317 0.9513 0.0000
vt 0.0377 0.9361 0.0000
# 49 texture coords

g Object16
usemtl wire_143224087
s 1
f 3/7/1 4/10/2 1/1/3 
f 1/1/4 2/4/5 3/7/6 
s 2
f 5/11/7 6/12/8 1/1/9 
f 1/1/10 4/10/11 5/11/12 
s 4
f 7/8/13 5/9/14 4/10/15 
f 4/10/16 3/7/17 7/8/18 
s 2
f 8/5/19 7/6/20 3/7/21 
f 3/7/22 2/4/23 8/5/24 
s 4
f 6/2/25 8/3/26 2/4/27 
f 2/4/28 1/1/29 6/2/30 
s 1
f 11/15/31 12/16/32 9/13/33 
f 9/13/34 10/14/35 11/15/36 
f 15/19/37 16/20/38 13/17/39 
f 13/17/40 14/18/41 15/19/42 
f 19/23/43 20/24/44 17/21/45 
f 17/21/46 18/22/47 19/23/48 
f 23/27/49 24/28/50 21/25/51 
f 21/25/52 22/26/53 23/27/54 
s 128
f 21/25/55 24/28/56 6/29/57 
f 6/29/58 5/31/59 21/25/60 
f 6/29/61 24/28/62 17/21/63 
f 13/17/64 16/20/65 5/31/66 
f 5/31/67 7/32/68 13/17/69 
f 5/31/70 16/20/71 21/25/72 
f 9/13/73 12/16/74 7/32/75 
f 7/32/76 8/30/77 9/13/78 
f 7/32/79 12/16/80 13/17/81 
f 17/21/82 20/24/83 8/30/84 
f 8/30/85 6/29/86 17/21/87 
f 8/30/88 20/24/89 9/13/90 
s 1
f 10/14/91 9/13/92 20/24/93 
f 20/24/94 19/23/95 10/14/96 
f 22/26/97 21/25/98 16/20/99 
f 16/20/100 15/19/101 22/26/102 
f 14/18/103 13/17/104 12/16/105 
f 12/16/106 11/15/107 14/18/108 
f 18/22/109 17/21/110 24/28/111 
f 24/28/112 23/27/113 18/22/114 
s 2
f 25/41/115 26/42/116 27/43/117 
f 25/41/118 27/43/119 28/44/120 
f 25/41/121 28/44/122 29/45/123 
f 25/41/124 29/45/125 30/46/126 
f 25/41/127 30/46/128 31/47/129 
f 25/41/130 31/47/131 32/48/132 
f 25/41/133 32/48/134 33/49/135 
f 25/41/136 33/49/137 26/42/138 
f 26/42/139 11/34/140 10/33/141 
f 10/33/142 27/43/143 26/42/144 
f 27/43/145 10/33/146 19/38/147 
f 19/38/148 28/44/149 27/43/150 
f 28/44/151 19/38/152 18/37/153 
f 18/37/154 29/45/155 28/44/156 
f 29/45/157 18/37/158 23/40/159 
f 23/40/160 30/46/161 29/45/162 
f 30/46/163 23/40/164 22/39/165 
f 22/39/166 31/47/167 30/46/168 
f 31/47/169 22/39/170 15/36/171 
f 15/36/172 32/48/173 31/47/174 
f 32/48/175 15/36/176 14/35/177 
f 14/35/178 33/49/179 32/48/180 
f 33/49/181 14/35/182 11/34/183 
f 11/34/184 26/42/185 33/49/186 
# 62 faces

