# 3ds Max Wavefront OBJ Exporter v0.94b - (c)2007 guruware
# File Created: 31.08.2009 19:54:39

mtllib port_left.mtl

#
# object Object08
#

v  9.7139 -8.6424 -4.9897
v  9.7139 -9.9793 -0.0000
v  5.3716 -9.9793 -0.0000
v  5.3716 -8.6424 -4.9897
v  9.7139 -4.9896 -8.6424
v  5.3716 -4.9896 -8.6424
v  9.7139 0.0001 -9.9793
v  5.3716 0.0001 -9.9793
v  9.7139 4.9897 -8.6424
v  5.3716 4.9897 -8.6424
v  9.7139 8.6424 -4.9897
v  5.3716 8.6424 -4.9897
v  9.7139 9.9793 -0.0000
v  5.3716 9.9793 -0.0000
v  9.7139 8.6424 4.9897
v  5.3716 8.6424 4.9897
v  9.7139 4.9897 8.6423
v  5.3716 4.9897 8.6423
v  9.7139 0.0001 9.9793
v  5.3716 0.0001 9.9793
v  9.7139 -4.9896 8.6423
v  5.3716 -4.9896 8.6423
v  9.7139 -8.6424 4.9897
v  5.3716 -8.6424 4.9897
v  2.6477 -7.5450 -0.0000
v  2.6477 -6.5341 -3.7725
v  2.6477 -3.7726 -6.5342
v  2.6477 0.0001 -7.5451
v  2.6477 3.7726 -6.5342
v  2.6477 6.5343 -3.7725
v  2.6477 7.5450 -0.0000
v  2.6477 6.5343 3.7725
v  2.6477 3.7726 6.5342
v  2.6477 0.0001 7.5450
v  2.6477 -3.7726 6.5342
v  2.6477 -6.5341 3.7725
v  -6.3192 -7.5450 -0.0000
v  -6.3192 -6.5341 -3.7725
v  -6.3192 -3.7726 -6.5342
v  -6.3192 0.0001 -7.5451
v  -6.3192 3.7726 -6.5342
v  -6.3192 6.5343 -3.7725
v  -6.3192 7.5450 -0.0000
v  -6.3192 6.5343 3.7725
v  -6.3192 3.7726 6.5342
v  -6.3192 0.0001 7.5450
v  -6.3192 -3.7726 6.5342
v  -6.3192 -6.5341 3.7725
v  -9.7139 -8.6424 -4.9897
v  -9.7139 -9.9793 -0.0000
v  -9.7139 -4.9896 -8.6424
v  -9.7139 0.0001 -9.9793
v  -9.7139 4.9897 -8.6424
v  -9.7139 8.6424 -4.9897
v  -9.7139 9.9793 -0.0000
v  -9.7139 8.6424 4.9897
v  -9.7139 4.9897 8.6423
v  -9.7139 0.0001 9.9793
v  -9.7139 -4.9896 8.6423
v  -9.7139 -8.6424 4.9897
# 60 vertices

vn -0.3384 -0.9410 0.0000
vn -0.3384 -0.8149 -0.4705
vn 0.0000 -0.8660 -0.5000
vn 0.0000 -0.8660 -0.5000
vn 0.0000 -1.0000 -0.0000
vn -0.3384 -0.9410 0.0000
vn -0.3384 -0.8149 -0.4705
vn -0.3384 -0.4705 -0.8149
vn 0.0000 -0.5000 -0.8660
vn 0.0000 -0.5000 -0.8660
vn 0.0000 -0.8660 -0.5000
vn -0.3384 -0.8149 -0.4705
vn -0.3384 -0.4705 -0.8149
vn -0.3384 0.0000 -0.9410
vn -0.0000 0.0000 -1.0000
vn -0.0000 0.0000 -1.0000
vn 0.0000 -0.5000 -0.8660
vn -0.3384 -0.4705 -0.8149
vn -0.3384 0.0000 -0.9410
vn -0.3384 0.4705 -0.8149
vn -0.0000 0.5000 -0.8660
vn -0.0000 0.5000 -0.8660
vn -0.0000 0.0000 -1.0000
vn -0.3384 0.0000 -0.9410
vn -0.3384 0.4705 -0.8149
vn -0.3384 0.8149 -0.4705
vn -0.0000 0.8660 -0.5000
vn -0.0000 0.8660 -0.5000
vn -0.0000 0.5000 -0.8660
vn -0.3384 0.4705 -0.8149
vn -0.3384 0.8149 -0.4705
vn -0.3384 0.9410 0.0000
vn -0.0000 1.0000 -0.0000
vn -0.0000 1.0000 -0.0000
vn -0.0000 0.8660 -0.5000
vn -0.3384 0.8149 -0.4705
vn -0.3384 0.9410 0.0000
vn -0.3384 0.8149 0.4705
vn -0.0000 0.8660 0.5000
vn -0.0000 0.8660 0.5000
vn -0.0000 1.0000 -0.0000
vn -0.3384 0.9410 0.0000
vn -0.3384 0.8149 0.4705
vn -0.3384 0.4705 0.8149
vn -0.0000 0.5000 0.8660
vn -0.0000 0.5000 0.8660
vn -0.0000 0.8660 0.5000
vn -0.3384 0.8149 0.4705
vn -0.3384 0.4705 0.8149
vn -0.3384 0.0000 0.9410
vn -0.0000 0.0000 1.0000
vn -0.0000 0.0000 1.0000
vn -0.0000 0.5000 0.8660
vn -0.3384 0.4705 0.8149
vn -0.3384 0.0000 0.9410
vn -0.3384 -0.4705 0.8149
vn 0.0000 -0.5000 0.8660
vn 0.0000 -0.5000 0.8660
vn -0.0000 0.0000 1.0000
vn -0.3384 0.0000 0.9410
vn -0.3384 -0.4705 0.8149
vn -0.3384 -0.8149 0.4705
vn 0.0000 -0.8660 0.5000
vn 0.0000 -0.8660 0.5000
vn 0.0000 -0.5000 0.8660
vn -0.3384 -0.4705 0.8149
vn -0.3384 -0.8149 0.4705
vn -0.3384 -0.9410 0.0000
vn 0.0000 -1.0000 -0.0000
vn 0.0000 -1.0000 -0.0000
vn 0.0000 -0.8660 0.5000
vn -0.3384 -0.8149 0.4705
vn -0.3779 -0.9259 0.0000
vn -0.3779 -0.8018 -0.4629
vn -0.3384 -0.8149 -0.4705
vn -0.3384 -0.8149 -0.4705
vn -0.3384 -0.9410 0.0000
vn -0.3779 -0.9259 0.0000
vn -0.3779 -0.8018 -0.4629
vn -0.3779 -0.4629 -0.8018
vn -0.3384 -0.4705 -0.8149
vn -0.3384 -0.4705 -0.8149
vn -0.3384 -0.8149 -0.4705
vn -0.3779 -0.8018 -0.4629
vn -0.3779 -0.4629 -0.8018
vn -0.3779 0.0000 -0.9259
vn -0.3384 0.0000 -0.9410
vn -0.3384 0.0000 -0.9410
vn -0.3384 -0.4705 -0.8149
vn -0.3779 -0.4629 -0.8018
vn -0.3779 0.0000 -0.9259
vn -0.3779 0.4629 -0.8018
vn -0.3384 0.4705 -0.8149
vn -0.3384 0.4705 -0.8149
vn -0.3384 0.0000 -0.9410
vn -0.3779 0.0000 -0.9259
vn -0.3779 0.4629 -0.8018
vn -0.3779 0.8018 -0.4629
vn -0.3384 0.8149 -0.4705
vn -0.3384 0.8149 -0.4705
vn -0.3384 0.4705 -0.8149
vn -0.3779 0.4629 -0.8018
vn -0.3779 0.8018 -0.4629
vn -0.3779 0.9259 0.0000
vn -0.3384 0.9410 0.0000
vn -0.3384 0.9410 0.0000
vn -0.3384 0.8149 -0.4705
vn -0.3779 0.8018 -0.4629
vn -0.3779 0.9259 0.0000
vn -0.3779 0.8018 0.4629
vn -0.3384 0.8149 0.4705
vn -0.3384 0.8149 0.4705
vn -0.3384 0.9410 0.0000
vn -0.3779 0.9259 0.0000
vn -0.3779 0.8018 0.4629
vn -0.3779 0.4629 0.8018
vn -0.3384 0.4705 0.8149
vn -0.3384 0.4705 0.8149
vn -0.3384 0.8149 0.4705
vn -0.3779 0.8018 0.4629
vn -0.3779 0.4629 0.8018
vn -0.3779 0.0000 0.9259
vn -0.3384 0.0000 0.9410
vn -0.3384 0.0000 0.9410
vn -0.3384 0.4705 0.8149
vn -0.3779 0.4629 0.8018
vn -0.3779 0.0000 0.9259
vn -0.3779 -0.4629 0.8018
vn -0.3384 -0.4705 0.8149
vn -0.3384 -0.4705 0.8149
vn -0.3384 0.0000 0.9410
vn -0.3779 0.0000 0.9259
vn -0.3779 -0.4629 0.8018
vn -0.3779 -0.8018 0.4629
vn -0.3384 -0.8149 0.4705
vn -0.3384 -0.8149 0.4705
vn -0.3384 -0.4705 0.8149
vn -0.3779 -0.4629 0.8018
vn -0.3779 -0.8018 0.4629
vn -0.3779 -0.9259 0.0000
vn -0.3384 -0.9410 0.0000
vn -0.3384 -0.9410 0.0000
vn -0.3384 -0.8149 0.4705
vn -0.3779 -0.8018 0.4629
vn 0.3218 -0.8199 -0.4734
vn -0.3779 -0.8018 -0.4629
vn -0.3779 -0.9259 0.0000
vn -0.3779 -0.9259 0.0000
vn 0.3218 -0.9468 0.0000
vn 0.3218 -0.8199 -0.4734
vn 0.3218 -0.4734 -0.8199
vn -0.3779 -0.4629 -0.8018
vn -0.3779 -0.8018 -0.4629
vn -0.3779 -0.8018 -0.4629
vn 0.3218 -0.8199 -0.4734
vn 0.3218 -0.4734 -0.8199
vn 0.3218 0.0000 -0.9468
vn -0.3779 0.0000 -0.9259
vn -0.3779 -0.4629 -0.8018
vn -0.3779 -0.4629 -0.8018
vn 0.3218 -0.4734 -0.8199
vn 0.3218 0.0000 -0.9468
vn 0.3218 0.4734 -0.8199
vn -0.3779 0.4629 -0.8018
vn -0.3779 0.0000 -0.9259
vn -0.3779 0.0000 -0.9259
vn 0.3218 0.0000 -0.9468
vn 0.3218 0.4734 -0.8199
vn 0.3218 0.4734 -0.8199
vn 0.3218 0.8200 -0.4734
vn -0.3779 0.8018 -0.4629
vn -0.3779 0.8018 -0.4629
vn -0.3779 0.4629 -0.8018
vn 0.3218 0.4734 -0.8199
vn 0.3218 0.8199 0.4734
vn -0.3779 0.8018 0.4629
vn -0.3779 0.9259 0.0000
vn -0.3779 0.9259 0.0000
vn 0.3218 0.9468 0.0000
vn 0.3218 0.8199 0.4734
vn 0.3218 0.8199 0.4734
vn 0.3218 0.4734 0.8200
vn -0.3779 0.4629 0.8018
vn -0.3779 0.4629 0.8018
vn -0.3779 0.8018 0.4629
vn 0.3218 0.8199 0.4734
vn 0.3218 0.0000 0.9468
vn -0.3779 0.0000 0.9259
vn -0.3779 0.4629 0.8018
vn -0.3779 0.4629 0.8018
vn 0.3218 0.4734 0.8200
vn 0.3218 0.0000 0.9468
vn 0.3218 -0.4734 0.8199
vn -0.3779 -0.4629 0.8018
vn -0.3779 0.0000 0.9259
vn -0.3779 0.0000 0.9259
vn 0.3218 0.0000 0.9468
vn 0.3218 -0.4734 0.8199
vn 0.3218 -0.9468 0.0000
vn -0.3779 -0.9259 0.0000
vn -0.3779 -0.8018 0.4629
vn -0.3779 -0.8018 0.4629
vn 0.3218 -0.8199 0.4734
vn 0.3218 -0.9468 0.0000
vn 0.3218 -0.9468 0.0000
vn 0.5827 -0.8127 0.0000
vn 0.5828 -0.7038 -0.4063
vn 0.5828 -0.7038 -0.4063
vn 0.3218 -0.8199 -0.4734
vn 0.3218 -0.9468 0.0000
vn 0.3218 -0.8199 -0.4734
vn 0.5828 -0.7038 -0.4063
vn 0.5827 -0.4063 -0.7038
vn 0.5827 -0.4063 -0.7038
vn 0.3218 -0.4734 -0.8199
vn 0.3218 -0.8199 -0.4734
vn 0.3218 -0.4734 -0.8199
vn 0.5827 -0.4063 -0.7038
vn 0.5827 -0.0000 -0.8127
vn 0.5827 -0.0000 -0.8127
vn 0.3218 0.0000 -0.9468
vn 0.3218 -0.4734 -0.8199
vn 0.3218 0.0000 -0.9468
vn 0.5827 -0.0000 -0.8127
vn 0.5827 0.4063 -0.7038
vn 0.5827 0.4063 -0.7038
vn 0.3218 0.4734 -0.8199
vn 0.3218 0.0000 -0.9468
vn 0.3218 0.4734 -0.8199
vn 0.5827 0.4063 -0.7038
vn 0.5827 0.7038 -0.4063
vn 0.5827 0.7038 -0.4063
vn 0.3218 0.8200 -0.4734
vn 0.3218 0.4734 -0.8199
vn 0.3218 0.8200 -0.4734
vn 0.5827 0.7038 -0.4063
vn 0.5827 0.8127 0.0000
vn 0.5827 0.8127 0.0000
vn 0.3218 0.9468 0.0000
vn 0.3218 0.8200 -0.4734
vn 0.3218 0.9468 0.0000
vn 0.5827 0.8127 0.0000
vn 0.5827 0.7038 0.4063
vn 0.5827 0.7038 0.4063
vn 0.3218 0.8199 0.4734
vn 0.3218 0.9468 0.0000
vn 0.3218 0.8199 0.4734
vn 0.5827 0.7038 0.4063
vn 0.5827 0.4063 0.7038
vn 0.5827 0.4063 0.7038
vn 0.3218 0.4734 0.8200
vn 0.3218 0.8199 0.4734
vn 0.3218 0.4734 0.8200
vn 0.5827 0.4063 0.7038
vn 0.5827 -0.0000 0.8127
vn 0.5827 -0.0000 0.8127
vn 0.3218 0.0000 0.9468
vn 0.3218 0.4734 0.8200
vn 0.3218 0.0000 0.9468
vn 0.5827 -0.0000 0.8127
vn 0.5827 -0.4063 0.7038
vn 0.5827 -0.4063 0.7038
vn 0.3218 -0.4734 0.8199
vn 0.3218 0.0000 0.9468
vn 0.3218 -0.4734 0.8199
vn 0.5827 -0.4063 0.7038
vn 0.5827 -0.7038 0.4063
vn 0.5827 -0.7038 0.4063
vn 0.3218 -0.8199 0.4734
vn 0.3218 -0.4734 0.8199
vn 0.3218 -0.8199 0.4734
vn 0.5827 -0.7038 0.4063
vn 0.5827 -0.8127 0.0000
vn 0.5827 -0.8127 0.0000
vn 0.3218 -0.9468 0.0000
vn 0.3218 -0.8199 0.4734
vn -0.3779 0.8018 -0.4629
vn 0.3218 0.8200 -0.4734
vn 0.3218 0.9468 0.0000
vn 0.3218 0.9468 0.0000
vn -0.3779 0.9259 0.0000
vn -0.3779 0.8018 -0.4629
vn 0.3218 -0.4734 0.8199
vn 0.3218 -0.8199 0.4734
vn -0.3779 -0.8018 0.4629
vn -0.3779 -0.8018 0.4629
vn -0.3779 -0.4629 0.8018
vn 0.3218 -0.4734 0.8199
vn -1.0000 -0.0000 0.0000
vn -1.0000 -0.0000 0.0000
vn -1.0000 -0.0000 0.0000
vn -1.0000 -0.0000 0.0000
vn -1.0000 -0.0000 0.0000
vn -1.0000 -0.0000 0.0000
vn -1.0000 -0.0000 0.0000
vn -1.0000 -0.0000 0.0000
vn -1.0000 -0.0000 0.0000
vn -1.0000 -0.0000 0.0000
vn -1.0000 -0.0000 0.0000
vn -1.0000 -0.0000 0.0000
vn -1.0000 -0.0000 0.0000
vn -1.0000 -0.0000 0.0000
vn -1.0000 -0.0000 0.0000
vn -1.0000 -0.0000 0.0000
vn -1.0000 -0.0000 0.0000
vn -1.0000 -0.0000 0.0000
vn -1.0000 -0.0000 0.0000
vn -1.0000 -0.0000 0.0000
vn -1.0000 -0.0000 0.0000
vn -1.0000 -0.0000 0.0000
vn -1.0000 -0.0000 0.0000
vn -1.0000 -0.0000 0.0000
vn -1.0000 -0.0000 0.0000
vn -1.0000 -0.0000 0.0000
vn -1.0000 -0.0000 0.0000
vn -1.0000 -0.0000 0.0000
vn -1.0000 -0.0000 0.0000
vn -1.0000 -0.0000 0.0000
vn 1.0000 0.0000 0.0000
vn 1.0000 0.0000 0.0000
vn 1.0000 0.0000 0.0000
vn 1.0000 0.0000 0.0000
vn 1.0000 0.0000 0.0000
vn 1.0000 0.0000 0.0000
vn 1.0000 0.0000 0.0000
vn 1.0000 0.0000 0.0000
vn 1.0000 0.0000 0.0000
vn 1.0000 0.0000 0.0000
vn 1.0000 0.0000 0.0000
vn 1.0000 0.0000 0.0000
vn 1.0000 0.0000 0.0000
vn 1.0000 0.0000 0.0000
vn 1.0000 0.0000 0.0000
vn 1.0000 0.0000 0.0000
vn 1.0000 0.0000 0.0000
vn 1.0000 0.0000 0.0000
vn 1.0000 0.0000 0.0000
vn 1.0000 0.0000 0.0000
vn 1.0000 0.0000 0.0000
vn 1.0000 0.0000 0.0000
vn 1.0000 0.0000 0.0000
vn 1.0000 0.0000 0.0000
vn 1.0000 0.0000 0.0000
vn 1.0000 0.0000 0.0000
vn 1.0000 0.0000 0.0000
vn 1.0000 0.0000 0.0000
vn 1.0000 0.0000 0.0000
vn 1.0000 0.0000 0.0000
# 348 vertex normals

vt 0.1589 0.7141 0.0000
vt 0.1118 0.7268 0.0000
vt 0.0647 0.7141 0.0000
vt 0.1934 0.6796 0.0000
vt 0.0302 0.6796 0.0000
vt 0.2061 0.6325 0.0000
vt 0.0175 0.6325 0.0000
vt 0.1934 0.5854 0.0000
vt 0.0302 0.5854 0.0000
vt 0.1589 0.5509 0.0000
vt 0.0647 0.5509 0.0000
vt 0.1118 0.5383 0.0000
vt 0.1654 0.7952 0.0000
vt 0.1214 0.8002 0.0000
vt 0.0772 0.8076 0.0000
vt 0.5183 0.8083 0.0000
vt 0.4741 0.8007 0.0000
vt 0.4301 0.7957 0.0000
vt 0.3860 0.7922 0.0000
vt 0.3419 0.7900 0.0000
vt 0.2978 0.7892 0.0000
vt 0.2536 0.7899 0.0000
vt 0.2095 0.7919 0.0000
vt 0.1693 0.8297 0.0000
vt 0.1274 0.8345 0.0000
vt 0.0870 0.8404 0.0000
vt 0.5084 0.8411 0.0000
vt 0.4680 0.8350 0.0000
vt 0.4261 0.8301 0.0000
vt 0.3836 0.8264 0.0000
vt 0.3407 0.8242 0.0000
vt 0.2977 0.8234 0.0000
vt 0.2548 0.8240 0.0000
vt 0.2119 0.8262 0.0000
vt 0.1771 0.9145 0.0000
vt 0.1373 0.9195 0.0000
vt 0.0982 0.9249 0.0000
vt 0.4969 0.9256 0.0000
vt 0.4579 0.9200 0.0000
vt 0.4181 0.9149 0.0000
vt 0.3779 0.9111 0.0000
vt 0.3378 0.9088 0.0000
vt 0.2976 0.9080 0.0000
vt 0.2574 0.9087 0.0000
vt 0.2172 0.9108 0.0000
vt 0.4155 0.1530 0.0000
vt 0.4281 0.2001 0.0000
vt 0.2396 0.2001 0.0000
vt 0.2522 0.1530 0.0000
vt 0.3810 0.1185 0.0000
vt 0.2867 0.1185 0.0000
vt 0.4155 0.2472 0.0000
vt 0.2522 0.2472 0.0000
vt 0.3339 0.1058 0.0000
vt 0.3810 0.2817 0.0000
vt 0.2867 0.2817 0.0000
vt 0.3339 0.2944 0.0000
vt 0.5457 0.8495 0.0000
vt 0.5345 0.9283 0.0000
vt 0.4960 0.9653 0.0000
vt 0.4539 0.9593 0.0000
vt 0.4811 0.7602 0.0000
vt 0.5285 0.7690 0.0000
vt 0.5632 0.8220 0.0000
vt 0.5423 0.9647 0.0000
vt 0.4141 0.9538 0.0000
vt 0.5755 0.7827 0.0000
vt 0.4346 0.7547 0.0000
vt 0.3751 0.9499 0.0000
vt 0.3888 0.7511 0.0000
vt 0.3363 0.9476 0.0000
vt 0.3433 0.7489 0.0000
vt 0.2975 0.9468 0.0000
vt 0.2978 0.7482 0.0000
vt 0.2587 0.9475 0.0000
vt 0.2524 0.7488 0.0000
vt 0.2199 0.9496 0.0000
vt 0.2068 0.7508 0.0000
vt 0.1809 0.9534 0.0000
vt 0.1610 0.7543 0.0000
vt 0.1412 0.9589 0.0000
vt 0.1145 0.7596 0.0000
vt 0.0990 0.9647 0.0000
vt 0.0606 0.9275 0.0000
vt 0.0497 0.8487 0.0000
vt 0.0671 0.7683 0.0000
vt 0.0323 0.8212 0.0000
vt 0.0527 0.9640 0.0000
vt 0.0201 0.7818 0.0000
# 89 texture coords

g Object08
usemtl wire_000000000
s 1
f 3/13/1 4/14/2 1/82/3 
f 1/82/4 2/80/5 3/13/6 
f 4/14/7 6/15/8 5/86/9 
f 5/86/10 1/82/11 4/14/12 
f 6/15/13 8/87/14 7/89/15 
f 7/89/16 5/86/17 6/15/18 
f 8/64/19 10/16/20 9/63/21 
f 9/63/22 7/67/23 8/64/24 
f 10/16/25 12/17/26 11/62/27 
f 11/62/28 9/63/29 10/16/30 
f 12/17/31 14/18/32 13/68/33 
f 13/68/34 11/62/35 12/17/36 
f 14/18/37 16/19/38 15/70/39 
f 15/70/40 13/68/41 14/18/42 
f 16/19/43 18/20/44 17/72/45 
f 17/72/46 15/70/47 16/19/48 
f 18/20/49 20/21/50 19/74/51 
f 19/74/52 17/72/53 18/20/54 
f 20/21/55 22/22/56 21/76/57 
f 21/76/58 19/74/59 20/21/60 
f 22/22/61 24/23/62 23/78/63 
f 23/78/64 21/76/65 22/22/66 
f 24/23/67 3/13/68 2/80/69 
f 2/80/70 23/78/71 24/23/72 
f 25/24/73 26/25/74 4/14/75 
f 4/14/76 3/13/77 25/24/78 
f 26/25/79 27/26/80 6/15/81 
f 6/15/82 4/14/83 26/25/84 
f 27/26/85 28/85/86 8/87/87 
f 8/87/88 6/15/89 27/26/90 
f 28/58/91 29/27/92 10/16/93 
f 10/16/94 8/64/95 28/58/96 
f 29/27/97 30/28/98 12/17/99 
f 12/17/100 10/16/101 29/27/102 
f 30/28/103 31/29/104 14/18/105 
f 14/18/106 12/17/107 30/28/108 
f 31/29/109 32/30/110 16/19/111 
f 16/19/112 14/18/113 31/29/114 
f 32/30/115 33/31/116 18/20/117 
f 18/20/118 16/19/119 32/30/120 
f 33/31/121 34/32/122 20/21/123 
f 20/21/124 18/20/125 33/31/126 
f 34/32/127 35/33/128 22/22/129 
f 22/22/130 20/21/131 34/32/132 
f 35/33/133 36/34/134 24/23/135 
f 24/23/136 22/22/137 35/33/138 
f 36/34/139 25/24/140 3/13/141 
f 3/13/142 24/23/143 36/34/144 
f 38/36/145 26/25/146 25/24/147 
f 25/24/148 37/35/149 38/36/150 
f 39/37/151 27/26/152 26/25/153 
f 26/25/154 38/36/155 39/37/156 
f 40/84/157 28/85/158 27/26/159 
f 27/26/160 39/37/161 40/84/162 
f 41/38/163 29/27/164 28/58/165 
f 28/58/166 40/59/167 41/38/168 
f 41/38/169 42/39/170 30/28/171 
f 30/28/172 29/27/173 41/38/174 
f 44/41/175 32/30/176 31/29/177 
f 31/29/178 43/40/179 44/41/180 
f 44/41/181 45/42/182 33/31/183 
f 33/31/184 32/30/185 44/41/186 
f 46/43/187 34/32/188 33/31/189 
f 33/31/190 45/42/191 46/43/192 
f 47/44/193 35/33/194 34/32/195 
f 34/32/196 46/43/197 47/44/198 
f 37/35/199 25/24/200 36/34/201 
f 36/34/202 48/45/203 37/35/204 
f 37/35/205 50/79/206 49/81/207 
f 49/81/208 38/36/209 37/35/210 
f 38/36/211 49/81/212 51/83/213 
f 51/83/214 39/37/215 38/36/216 
f 39/37/217 51/83/218 52/88/219 
f 52/88/220 40/84/221 39/37/222 
f 40/59/223 52/65/224 53/60/225 
f 53/60/226 41/38/227 40/59/228 
f 41/38/229 53/60/230 54/61/231 
f 54/61/232 42/39/233 41/38/234 
f 42/39/235 54/61/236 55/66/237 
f 55/66/238 43/40/239 42/39/240 
f 43/40/241 55/66/242 56/69/243 
f 56/69/244 44/41/245 43/40/246 
f 44/41/247 56/69/248 57/71/249 
f 57/71/250 45/42/251 44/41/252 
f 45/42/253 57/71/254 58/73/255 
f 58/73/256 46/43/257 45/42/258 
f 46/43/259 58/73/260 59/75/261 
f 59/75/262 47/44/263 46/43/264 
f 47/44/265 59/75/266 60/77/267 
f 60/77/268 48/45/269 47/44/270 
f 48/45/271 60/77/272 50/79/273 
f 50/79/274 37/35/275 48/45/276 
f 30/28/277 42/39/278 43/40/279 
f 43/40/280 31/29/281 30/28/282 
f 47/44/283 48/45/284 36/34/285 
f 36/34/286 35/33/287 47/44/288 
s 2
f 49/8/289 54/9/290 53/11/291 
f 53/11/292 51/10/293 49/8/294 
f 50/6/295 55/7/296 54/9/297 
f 54/9/298 49/8/299 50/6/300 
f 60/4/301 56/5/302 55/7/303 
f 55/7/304 50/6/305 60/4/306 
f 59/1/307 57/3/308 56/5/309 
f 56/5/310 60/4/311 59/1/312 
f 51/10/313 53/11/314 52/12/315 
f 57/3/316 59/1/317 58/2/318 
f 23/46/319 15/49/320 17/51/321 
f 17/51/322 21/50/323 23/46/324 
f 2/47/325 13/48/326 15/49/327 
f 15/49/328 23/46/329 2/47/330 
f 1/52/331 11/53/332 13/48/333 
f 13/48/334 2/47/335 1/52/336 
f 5/55/337 9/56/338 11/53/339 
f 11/53/340 1/52/341 5/55/342 
f 7/57/343 9/56/344 5/55/345 
f 19/54/346 21/50/347 17/51/348 
# 116 faces

