# 3ds Max Wavefront OBJ Exporter v0.94b - (c)2007 guruware
# File Created: 03.09.2009 14:26:38

mtllib terminal_back.mtl

#
# object 123451
#

v  -10.0176 -10.0177 -2.0287
v  -10.0176 10.0177 -2.0287
v  10.0177 10.0177 -2.0287
v  10.0177 -10.0177 -2.0287
v  10.0177 -10.0177 2.0287
v  -10.0176 -10.0177 2.0287
v  10.0177 10.0177 2.0287
v  -10.0176 10.0177 2.0287
# 8 vertices

vn 0.0000 0.0000 -1.0000
vn 0.0000 0.0000 -1.0000
vn 0.0000 0.0000 -1.0000
vn 0.0000 0.0000 -1.0000
vn 0.0000 0.0000 -1.0000
vn 0.0000 0.0000 -1.0000
vn 0.0000 -1.0000 0.0000
vn 0.0000 -1.0000 0.0000
vn 0.0000 -1.0000 0.0000
vn 0.0000 -1.0000 0.0000
vn 0.0000 -1.0000 0.0000
vn 0.0000 -1.0000 0.0000
vn 1.0000 0.0000 0.0000
vn 1.0000 0.0000 0.0000
vn 1.0000 0.0000 0.0000
vn 1.0000 0.0000 0.0000
vn 1.0000 0.0000 0.0000
vn 1.0000 0.0000 0.0000
vn 0.0000 1.0000 0.0000
vn 0.0000 1.0000 0.0000
vn 0.0000 1.0000 0.0000
vn 0.0000 1.0000 0.0000
vn 0.0000 1.0000 0.0000
vn 0.0000 1.0000 0.0000
vn -1.0000 0.0000 0.0000
vn -1.0000 0.0000 0.0000
vn -1.0000 0.0000 0.0000
vn -1.0000 0.0000 0.0000
vn -1.0000 0.0000 0.0000
vn -1.0000 0.0000 0.0000
# 30 vertex normals

vt 0.0517 0.8339 0.0000
vt 0.0517 0.1647 0.0000
vt 0.2068 0.1644 0.0000
vt 0.2069 0.8336 0.0000
vt 0.2069 0.9691 0.0000
vt 0.0517 0.9694 0.0000
vt 0.2382 0.1644 0.0000
vt 0.2383 0.8335 0.0000
vt 0.0516 0.0292 0.0000
vt 0.2068 0.0289 0.0000
vt 0.0203 0.8339 0.0000
vt 0.0202 0.1648 0.0000
# 12 texture coords

g 123451
usemtl wire_087224198
s 1
f 3/3/1 4/4/2 1/1/3 
f 1/1/4 2/2/5 3/3/6 
s 2
f 5/5/7 6/6/8 1/1/9 
f 1/1/10 4/4/11 5/5/12 
s 4
f 7/7/13 5/8/14 4/4/15 
f 4/4/16 3/3/17 7/7/18 
s 2
f 8/9/19 7/10/20 3/3/21 
f 3/3/22 2/2/23 8/9/24 
s 4
f 6/11/25 8/12/26 2/2/27 
f 2/2/28 1/1/29 6/11/30 
# 10 faces

