# 3ds Max Wavefront OBJ Exporter v0.94b - (c)2007 guruware
# File Created: 30.08.2009 17:35:13

mtllib base.mtl

#
# object Object02
#

v  -9.5531 -10.0177 -2.0287
v  -9.5531 10.0177 -2.0287
v  10.4823 10.0177 -2.0287
v  10.4823 -10.0177 -2.0287
v  -9.5531 -10.0177 2.0287
v  10.4823 -10.0177 2.0287
v  10.4823 10.0177 2.0287
v  -9.5531 10.0177 2.0287
# 8 vertices

vn 0.0000 0.0000 -1.0000
vn 0.0000 0.0000 -1.0000
vn 0.0000 0.0000 -1.0000
vn 0.0000 0.0000 -1.0000
vn 0.0000 0.0000 -1.0000
vn 0.0000 0.0000 -1.0000
vn 0.0000 0.0000 1.0000
vn 0.0000 0.0000 1.0000
vn 0.0000 0.0000 1.0000
vn 0.0000 0.0000 1.0000
vn 0.0000 0.0000 1.0000
vn 0.0000 0.0000 1.0000
vn 0.0000 -1.0000 0.0000
vn 0.0000 -1.0000 0.0000
vn 0.0000 -1.0000 0.0000
vn 0.0000 -1.0000 0.0000
vn 0.0000 -1.0000 0.0000
vn 0.0000 -1.0000 0.0000
vn 1.0000 0.0000 0.0000
vn 1.0000 0.0000 0.0000
vn 1.0000 0.0000 0.0000
vn 1.0000 0.0000 0.0000
vn 1.0000 0.0000 0.0000
vn 1.0000 0.0000 0.0000
vn 0.0000 1.0000 0.0000
vn 0.0000 1.0000 0.0000
vn 0.0000 1.0000 0.0000
vn 0.0000 1.0000 0.0000
vn 0.0000 1.0000 0.0000
vn 0.0000 1.0000 0.0000
vn -1.0000 0.0000 0.0000
vn -1.0000 0.0000 0.0000
vn -1.0000 0.0000 0.0000
vn -1.0000 0.0000 0.0000
vn -1.0000 0.0000 0.0000
vn -1.0000 0.0000 0.0000
# 36 vertex normals

vt 0.8141 0.0358 0.0000
vt 0.8138 0.1706 0.0000
vt 0.6519 0.0355 0.0000
vt 0.6517 0.1703 0.0000
vt 0.6517 0.1976 0.0000
vt 0.5169 0.1974 0.0000
vt 0.5170 0.1701 0.0000
vt 0.4897 0.1701 0.0000
vt 0.4898 0.0353 0.0000
vt 0.5171 0.0353 0.0000
vt 0.5172 0.0080 0.0000
vt 0.6520 0.0082 0.0000
vt 0.6790 0.1703 0.0000
vt 0.6793 0.0355 0.0000
# 14 texture coords

g Object02
usemtl wire_143224087
s 1
f 3/7/1 4/10/2 1/3/3 
f 1/3/4 2/4/5 3/7/6 
f 7/2/7 8/13/8 5/14/9 
f 5/14/10 6/1/11 7/2/12 
s 2
f 6/11/13 5/12/14 1/3/15 
f 1/3/16 4/10/17 6/11/18 
s 4
f 7/8/19 6/9/20 4/10/21 
f 4/10/22 3/7/23 7/8/24 
s 2
f 8/5/25 7/6/26 3/7/27 
f 3/7/28 2/4/29 8/5/30 
s 4
f 5/14/31 8/13/32 2/4/33 
f 2/4/34 1/3/35 5/14/36 
# 12 faces

