# 3ds Max Wavefront OBJ Exporter v0.94b - (c)2007 guruware
# File Created: 30.08.2009 17:46:08

mtllib orange_disk.mtl

#
# object Object19
#

v  -10.0177 10.0177 -2.0287
v  8.2861 10.0177 -2.0287
v  10.0177 8.2861 -2.0287
v  -10.0177 -10.0177 -2.0287
v  10.0177 -10.0177 -2.0287
v  10.0177 -10.0177 2.0287
v  10.0177 8.2861 2.0287
v  -10.0177 -10.0177 2.0287
v  -10.0177 10.0177 2.0287
v  8.2861 10.0177 2.0287
v  1.0231 0.0689 2.0287
v  -6.5367 0.0470 2.0287
v  -6.5778 -6.8751 2.0287
v  -6.5847 -8.0366 2.0287
v  7.0398 -8.0605 2.0287
v  7.0398 0.0710 2.0287
# 16 vertices

vn 0.0000 0.0000 -1.0000
vn 0.0000 0.0000 -1.0000
vn 0.0000 0.0000 -1.0000
vn 0.0000 0.0000 -1.0000
vn 0.0000 0.0000 -1.0000
vn 0.0000 0.0000 -1.0000
vn 0.0000 0.0000 -1.0000
vn 0.0000 0.0000 -1.0000
vn 0.0000 0.0000 -1.0000
vn 0.0000 0.0000 1.0000
vn 0.0000 0.0000 1.0000
vn 0.0000 0.0000 1.0000
vn 0.0000 0.0000 1.0000
vn 0.0000 0.0000 1.0000
vn 0.0000 0.0000 1.0000
vn 0.0000 -1.0000 0.0000
vn 0.0000 -1.0000 0.0000
vn 0.0000 -1.0000 0.0000
vn 0.0000 -1.0000 0.0000
vn 0.0000 -1.0000 0.0000
vn 0.0000 -1.0000 0.0000
vn 1.0000 0.0000 0.0000
vn 1.0000 0.0000 0.0000
vn 1.0000 0.0000 0.0000
vn 1.0000 0.0000 0.0000
vn 1.0000 0.0000 0.0000
vn 1.0000 0.0000 0.0000
vn 0.0000 1.0000 0.0000
vn 0.3827 0.9239 0.0000
vn 0.3827 0.9239 0.0000
vn 0.3827 0.9239 0.0000
vn 0.0000 1.0000 0.0000
vn 0.0000 1.0000 0.0000
vn -1.0000 0.0000 0.0000
vn -1.0000 0.0000 0.0000
vn -1.0000 0.0000 0.0000
vn -1.0000 0.0000 0.0000
vn -1.0000 0.0000 0.0000
vn -1.0000 0.0000 0.0000
vn 0.3827 0.9239 0.0000
vn 0.7071 0.7071 0.0000
vn 0.7071 0.7071 0.0000
vn 0.7071 0.7071 0.0000
vn 0.3827 0.9239 0.0000
vn 0.3827 0.9239 0.0000
vn 0.0000 0.0000 1.0000
vn 0.0000 0.0000 1.0000
vn 0.0000 0.0000 1.0000
vn 0.0000 0.0000 1.0000
vn 0.0000 0.0000 1.0000
vn 0.0000 0.0000 1.0000
vn 0.0000 0.0000 1.0000
vn 0.0000 0.0000 1.0000
vn 0.0000 0.0000 1.0000
vn 0.0000 0.0000 1.0000
vn 0.0000 0.0000 1.0000
vn 0.0000 0.0000 1.0000
vn 0.0000 0.0000 1.0000
vn 0.0000 0.0000 1.0000
vn 0.0000 0.0000 1.0000
vn 0.0000 0.0000 1.0000
vn 0.0000 0.0000 1.0000
vn 0.0000 0.0000 1.0000
vn 0.0000 0.0000 1.0000
vn 0.0000 0.0000 1.0000
vn 0.0000 0.0000 1.0000
vn 0.0000 0.0000 1.0000
vn 0.0000 0.0000 1.0000
vn 0.0000 0.0000 1.0000
vn 0.0000 0.0000 1.0000
vn 0.0000 0.0000 1.0000
vn 0.0000 0.0000 1.0000
vn 0.0000 0.0000 1.0000
vn 0.0000 0.0000 1.0000
vn 0.0000 0.0000 1.0000
vn 0.0000 0.0000 1.0000
vn 0.0000 0.0000 1.0000
vn 0.0000 0.0000 1.0000
vn 0.0000 0.0000 1.0000
vn 0.0000 0.0000 1.0000
vn 0.0000 0.0000 1.0000
vn 0.0000 0.0000 1.0000
vn 0.0000 0.0000 1.0000
vn 0.0000 0.0000 1.0000
# 84 vertex normals

vt 0.6877 0.3459 0.0000
vt 0.6760 0.4807 0.0000
vt 0.6487 0.4807 0.0000
vt 0.6487 0.3575 0.0000
vt 0.6760 0.3575 0.0000
vt 0.6567 0.3382 0.0000
vt 0.8108 0.4807 0.0000
vt 0.8107 0.5080 0.0000
vt 0.6760 0.5080 0.0000
vt 0.8108 0.3460 0.0000
vt 0.8381 0.3460 0.0000
vt 0.8381 0.4808 0.0000
vt 0.6761 0.3069 0.0000
vt 0.6762 0.1837 0.0000
vt 0.8110 0.1839 0.0000
vt 0.6684 0.3266 0.0000
vt 0.8108 0.3187 0.0000
vt 0.6877 0.3186 0.0000
vt 0.7431 0.2581 0.0000
vt 0.7433 0.2072 0.0000
vt 0.7898 0.2070 0.0000
vt 0.7977 0.2070 0.0000
vt 0.7977 0.2986 0.0000
vt 0.7430 0.2986 0.0000
vt 0.8276 0.2864 0.0000
vt 0.8278 0.2388 0.0000
vt 0.8714 0.2386 0.0000
vt 0.8788 0.2385 0.0000
vt 0.8788 0.3244 0.0000
vt 0.8276 0.3243 0.0000
# 30 texture coords

g Object19
usemtl wire_143224087
s 1
f 3/1/1 4/7/2 1/2/3 
f 1/2/4 2/5/5 3/1/6 
f 4/7/7 3/1/8 5/10/9 
f 15/29/10 16/30/11 11/25/12 
f 11/25/13 14/28/14 15/29/15 
s 2
f 6/11/16 8/12/17 4/7/18 
f 4/7/19 5/10/20 6/11/21 
s 4
f 7/18/22 6/17/23 5/10/24 
f 5/10/25 3/1/26 7/18/27 
s 2
f 9/3/28 10/4/29 2/5/30 
f 2/5/31 1/2/32 9/3/33 
s 4
f 8/8/34 9/9/35 1/2/36 
f 1/2/37 4/7/38 8/8/39 
s 2
f 10/6/40 7/16/41 3/1/42 
f 3/1/43 2/5/44 10/6/45 
s 1
f 7/18/46 16/24/47 15/23/48 
f 15/23/49 6/17/50 7/18/51 
f 16/24/52 7/18/53 11/19/54 
f 14/22/55 8/15/56 6/17/57 
f 6/17/58 15/23/59 14/22/60 
f 12/20/61 9/14/62 8/15/63 
f 13/21/64 12/20/65 8/15/66 
f 14/22/67 13/21/68 8/15/69 
f 13/27/70 14/28/71 11/25/72 
f 11/25/73 12/26/74 13/27/75 
f 11/19/76 7/18/77 10/13/78 
f 12/20/79 11/19/80 10/13/81 
f 12/20/82 10/13/83 9/14/84 
# 28 faces

