# 3ds Max Wavefront OBJ Exporter v0.94b - (c)2007 guruware
# File Created: 31.08.2009 19:53:36

mtllib port_vertical.mtl

#
# object Object03
#

v  -8.6424 -9.5878 -4.9897
v  -9.9794 -9.5878 -0.0000
v  -9.9794 -5.5369 -0.0000
v  -8.6424 -5.5369 -4.9897
v  -4.9897 -9.5878 -8.6424
v  -4.9897 -5.5369 -8.6424
v  0.0000 -9.5878 -9.9793
v  0.0000 -5.5369 -9.9793
v  4.9896 -9.5878 -8.6424
v  4.9896 -5.5369 -8.6424
v  8.6424 -9.5878 -4.9897
v  8.6424 -5.5369 -4.9897
v  9.9793 -9.5878 -0.0000
v  9.9793 -5.5369 -0.0000
v  8.6424 -9.5878 4.9897
v  8.6424 -5.5369 4.9897
v  4.9896 -9.5878 8.6423
v  4.9896 -5.5369 8.6423
v  0.0000 -9.5878 9.9793
v  0.0000 -5.5369 9.9793
v  -4.9897 -9.5878 8.6423
v  -4.9897 -5.5369 8.6423
v  -8.6424 -9.5878 4.9897
v  -8.6424 -5.5369 4.9897
v  -7.5451 -2.8959 -0.0000
v  -6.5342 -2.8959 -3.7725
v  -3.7726 -2.8959 -6.5342
v  0.0000 -2.8959 -7.5451
v  3.7725 -2.8959 -6.5342
v  6.5342 -2.8959 -3.7725
v  7.5450 -2.8959 -0.0000
v  6.5342 -2.8959 3.7725
v  3.7725 -2.8959 6.5342
v  0.0000 -2.8959 7.5450
v  -3.7726 -2.8959 6.5342
v  -6.5342 -2.8959 3.7725
v  -7.5450 3.2364 -0.0000
v  -6.5342 3.2364 -3.7725
v  -3.7726 3.2364 -6.5342
v  0.0000 3.2364 -7.5451
v  3.7726 3.2364 -6.5342
v  6.5342 3.2364 -3.7725
v  7.5450 3.2364 -0.0000
v  6.5342 3.2364 3.7725
v  3.7726 3.2364 6.5342
v  0.0000 3.2364 7.5450
v  -3.7726 3.2364 6.5342
v  -6.5342 3.2364 3.7725
v  8.6424 9.9284 -4.9897
v  9.9794 9.9284 -0.0000
v  9.9794 5.8775 -0.0000
v  8.6424 5.8775 -4.9897
v  4.9897 9.9284 -8.6424
v  4.9897 5.8775 -8.6424
v  -0.0000 9.9284 -9.9793
v  -0.0000 5.8775 -9.9793
v  -4.9896 9.9284 -8.6424
v  -4.9896 5.8775 -8.6424
v  -8.6424 9.9284 -4.9897
v  -8.6424 5.8775 -4.9897
v  -9.9793 9.9284 -0.0000
v  -9.9793 5.8775 -0.0000
v  -8.6424 9.9284 4.9897
v  -8.6424 5.8775 4.9897
v  -4.9896 9.9284 8.6423
v  -4.9896 5.8775 8.6423
v  -0.0000 9.9284 9.9793
v  -0.0000 5.8775 9.9793
v  4.9897 9.9284 8.6423
v  4.9897 5.8775 8.6423
v  8.6424 9.9284 4.9897
v  8.6424 5.8775 4.9897
# 72 vertices

vn -0.9386 0.3449 0.0000
vn -0.8129 0.3449 -0.4693
vn -0.8660 0.0000 -0.5000
vn -0.8660 0.0000 -0.5000
vn -1.0000 0.0000 -0.0000
vn -0.9386 0.3449 0.0000
vn -0.8129 0.3449 -0.4693
vn -0.4693 0.3449 -0.8129
vn -0.5000 0.0000 -0.8660
vn -0.5000 0.0000 -0.8660
vn -0.8660 0.0000 -0.5000
vn -0.8129 0.3449 -0.4693
vn -0.4693 0.3449 -0.8129
vn 0.0000 0.3449 -0.9386
vn 0.0000 0.0000 -1.0000
vn 0.0000 0.0000 -1.0000
vn -0.5000 0.0000 -0.8660
vn -0.4693 0.3449 -0.8129
vn 0.0000 0.3449 -0.9386
vn 0.4693 0.3449 -0.8129
vn 0.5000 0.0000 -0.8660
vn 0.5000 0.0000 -0.8660
vn 0.0000 0.0000 -1.0000
vn 0.0000 0.3449 -0.9386
vn 0.4693 0.3449 -0.8129
vn 0.8129 0.3449 -0.4693
vn 0.8660 0.0000 -0.5000
vn 0.8660 0.0000 -0.5000
vn 0.5000 0.0000 -0.8660
vn 0.4693 0.3449 -0.8129
vn 0.8129 0.3449 -0.4693
vn 0.9386 0.3449 0.0000
vn 1.0000 0.0000 -0.0000
vn 1.0000 0.0000 -0.0000
vn 0.8660 0.0000 -0.5000
vn 0.8129 0.3449 -0.4693
vn 0.9386 0.3449 0.0000
vn 0.8129 0.3449 0.4693
vn 0.8660 0.0000 0.5000
vn 0.8660 0.0000 0.5000
vn 1.0000 0.0000 -0.0000
vn 0.9386 0.3449 0.0000
vn 0.8129 0.3449 0.4693
vn 0.4693 0.3449 0.8129
vn 0.5000 0.0000 0.8660
vn 0.5000 0.0000 0.8660
vn 0.8660 0.0000 0.5000
vn 0.8129 0.3449 0.4693
vn 0.4693 0.3449 0.8129
vn 0.0000 0.3449 0.9386
vn 0.0000 0.0000 1.0000
vn 0.0000 0.0000 1.0000
vn 0.5000 0.0000 0.8660
vn 0.4693 0.3449 0.8129
vn 0.0000 0.3449 0.9386
vn -0.4693 0.3449 0.8129
vn -0.5000 0.0000 0.8660
vn -0.5000 0.0000 0.8660
vn 0.0000 0.0000 1.0000
vn 0.0000 0.3449 0.9386
vn -0.4693 0.3449 0.8129
vn -0.8129 0.3449 0.4693
vn -0.8660 0.0000 0.5000
vn -0.8660 0.0000 0.5000
vn -0.5000 0.0000 0.8660
vn -0.4693 0.3449 0.8129
vn -0.8129 0.3449 0.4693
vn -0.9386 0.3449 0.0000
vn -1.0000 0.0000 -0.0000
vn -1.0000 0.0000 -0.0000
vn -0.8660 0.0000 0.5000
vn -0.8129 0.3449 0.4693
vn -0.9226 0.3859 0.0000
vn -0.7990 0.3859 -0.4613
vn -0.8129 0.3449 -0.4693
vn -0.8129 0.3449 -0.4693
vn -0.9386 0.3449 0.0000
vn -0.9226 0.3859 0.0000
vn -0.7990 0.3859 -0.4613
vn -0.4613 0.3859 -0.7990
vn -0.4693 0.3449 -0.8129
vn -0.4693 0.3449 -0.8129
vn -0.8129 0.3449 -0.4693
vn -0.7990 0.3859 -0.4613
vn -0.4613 0.3859 -0.7990
vn 0.0000 0.3859 -0.9226
vn 0.0000 0.3449 -0.9386
vn 0.0000 0.3449 -0.9386
vn -0.4693 0.3449 -0.8129
vn -0.4613 0.3859 -0.7990
vn 0.0000 0.3859 -0.9226
vn 0.4613 0.3859 -0.7990
vn 0.4693 0.3449 -0.8129
vn 0.4693 0.3449 -0.8129
vn 0.0000 0.3449 -0.9386
vn 0.0000 0.3859 -0.9226
vn 0.4613 0.3859 -0.7990
vn 0.7990 0.3859 -0.4613
vn 0.8129 0.3449 -0.4693
vn 0.8129 0.3449 -0.4693
vn 0.4693 0.3449 -0.8129
vn 0.4613 0.3859 -0.7990
vn 0.7990 0.3859 -0.4613
vn 0.9226 0.3859 0.0000
vn 0.9386 0.3449 0.0000
vn 0.9386 0.3449 0.0000
vn 0.8129 0.3449 -0.4693
vn 0.7990 0.3859 -0.4613
vn 0.9226 0.3859 0.0000
vn 0.7990 0.3859 0.4613
vn 0.8129 0.3449 0.4693
vn 0.8129 0.3449 0.4693
vn 0.9386 0.3449 0.0000
vn 0.9226 0.3859 0.0000
vn 0.7990 0.3859 0.4613
vn 0.4613 0.3859 0.7990
vn 0.4693 0.3449 0.8129
vn 0.4693 0.3449 0.8129
vn 0.8129 0.3449 0.4693
vn 0.7990 0.3859 0.4613
vn 0.4613 0.3859 0.7990
vn 0.0000 0.3859 0.9226
vn 0.0000 0.3449 0.9386
vn 0.0000 0.3449 0.9386
vn 0.4693 0.3449 0.8129
vn 0.4613 0.3859 0.7990
vn 0.0000 0.3859 0.9226
vn -0.4613 0.3859 0.7990
vn -0.4693 0.3449 0.8129
vn -0.4693 0.3449 0.8129
vn 0.0000 0.3449 0.9386
vn 0.0000 0.3859 0.9226
vn -0.4613 0.3859 0.7990
vn -0.7990 0.3859 0.4613
vn -0.8129 0.3449 0.4693
vn -0.8129 0.3449 0.4693
vn -0.4693 0.3449 0.8129
vn -0.4613 0.3859 0.7990
vn -0.7990 0.3859 0.4613
vn -0.9226 0.3859 0.0000
vn -0.9386 0.3449 0.0000
vn -0.9386 0.3449 0.0000
vn -0.8129 0.3449 0.4693
vn -0.7990 0.3859 0.4613
vn -0.7990 -0.3859 -0.4613
vn -0.7990 0.3859 -0.4613
vn -0.9226 0.3859 0.0000
vn -0.9226 0.3859 0.0000
vn -0.9226 -0.3858 -0.0000
vn -0.7990 -0.3859 -0.4613
vn -0.4613 -0.3859 -0.7990
vn -0.4613 0.3859 -0.7990
vn -0.7990 0.3859 -0.4613
vn -0.7990 0.3859 -0.4613
vn -0.7990 -0.3859 -0.4613
vn -0.4613 -0.3859 -0.7990
vn 0.0000 -0.3858 -0.9226
vn 0.0000 0.3859 -0.9226
vn -0.4613 0.3859 -0.7990
vn -0.4613 0.3859 -0.7990
vn -0.4613 -0.3859 -0.7990
vn 0.0000 -0.3858 -0.9226
vn 0.4613 -0.3858 -0.7990
vn 0.4613 0.3859 -0.7990
vn 0.0000 0.3859 -0.9226
vn 0.0000 0.3859 -0.9226
vn 0.0000 -0.3858 -0.9226
vn 0.4613 -0.3858 -0.7990
vn 0.4613 -0.3858 -0.7990
vn 0.7990 -0.3859 -0.4613
vn 0.7990 0.3859 -0.4613
vn 0.7990 0.3859 -0.4613
vn 0.4613 0.3859 -0.7990
vn 0.4613 -0.3858 -0.7990
vn 0.7990 -0.3859 0.4613
vn 0.7990 0.3859 0.4613
vn 0.9226 0.3859 0.0000
vn 0.9226 0.3859 0.0000
vn 0.9226 -0.3859 0.0000
vn 0.7990 -0.3859 0.4613
vn 0.7990 -0.3859 0.4613
vn 0.4613 -0.3858 0.7990
vn 0.4613 0.3859 0.7990
vn 0.4613 0.3859 0.7990
vn 0.7990 0.3859 0.4613
vn 0.7990 -0.3859 0.4613
vn 0.0000 -0.3858 0.9226
vn 0.0000 0.3859 0.9226
vn 0.4613 0.3859 0.7990
vn 0.4613 0.3859 0.7990
vn 0.4613 -0.3858 0.7990
vn 0.0000 -0.3858 0.9226
vn -0.4613 -0.3858 0.7990
vn -0.4613 0.3859 0.7990
vn 0.0000 0.3859 0.9226
vn 0.0000 0.3859 0.9226
vn 0.0000 -0.3858 0.9226
vn -0.4613 -0.3858 0.7990
vn -0.9226 -0.3858 -0.0000
vn -0.9226 0.3859 0.0000
vn -0.7990 0.3859 0.4613
vn -0.7990 0.3859 0.4613
vn -0.7990 -0.3859 0.4613
vn -0.9226 -0.3858 -0.0000
vn 0.7990 0.3859 -0.4613
vn 0.7990 -0.3859 -0.4613
vn 0.9226 -0.3859 0.0000
vn 0.9226 -0.3859 0.0000
vn 0.9226 0.3859 0.0000
vn 0.7990 0.3859 -0.4613
vn -0.4613 -0.3858 0.7990
vn -0.7990 -0.3859 0.4613
vn -0.7990 0.3859 0.4613
vn -0.7990 0.3859 0.4613
vn -0.4613 0.3859 0.7990
vn -0.4613 -0.3858 0.7990
vn 0.0000 -1.0000 0.0000
vn 0.0000 -1.0000 0.0000
vn 0.0000 -1.0000 0.0000
vn 0.0000 -1.0000 0.0000
vn 0.0000 -1.0000 0.0000
vn 0.0000 -1.0000 0.0000
vn 0.0000 -1.0000 0.0000
vn 0.0000 -1.0000 0.0000
vn 0.0000 -1.0000 0.0000
vn 0.0000 -1.0000 0.0000
vn 0.0000 -1.0000 0.0000
vn 0.0000 -1.0000 0.0000
vn 0.0000 -1.0000 0.0000
vn 0.0000 -1.0000 0.0000
vn 0.0000 -1.0000 0.0000
vn 0.0000 -1.0000 0.0000
vn 0.0000 -1.0000 0.0000
vn 0.0000 -1.0000 0.0000
vn 0.0000 -1.0000 0.0000
vn 0.0000 -1.0000 0.0000
vn 0.0000 -1.0000 0.0000
vn 0.0000 -1.0000 0.0000
vn 0.0000 -1.0000 0.0000
vn 0.0000 -1.0000 0.0000
vn 0.0000 -1.0000 0.0000
vn 0.0000 -1.0000 0.0000
vn 0.0000 -1.0000 0.0000
vn 0.0000 -1.0000 0.0000
vn 0.0000 -1.0000 0.0000
vn 0.0000 -1.0000 0.0000
vn 0.9386 -0.3449 -0.0000
vn 0.8129 -0.3449 -0.4693
vn 0.8660 0.0000 -0.5000
vn 0.8660 0.0000 -0.5000
vn 1.0000 0.0000 -0.0000
vn 0.9386 -0.3449 -0.0000
vn 0.8129 -0.3449 -0.4693
vn 0.4693 -0.3449 -0.8129
vn 0.5000 0.0000 -0.8660
vn 0.5000 0.0000 -0.8660
vn 0.8660 0.0000 -0.5000
vn 0.8129 -0.3449 -0.4693
vn 0.4693 -0.3449 -0.8129
vn -0.0000 -0.3449 -0.9386
vn -0.0000 0.0000 -1.0000
vn -0.0000 0.0000 -1.0000
vn 0.5000 0.0000 -0.8660
vn 0.4693 -0.3449 -0.8129
vn -0.0000 -0.3449 -0.9386
vn -0.4693 -0.3449 -0.8129
vn -0.5000 0.0000 -0.8660
vn -0.5000 0.0000 -0.8660
vn -0.0000 0.0000 -1.0000
vn -0.0000 -0.3449 -0.9386
vn -0.4693 -0.3449 -0.8129
vn -0.8129 -0.3449 -0.4693
vn -0.8660 0.0000 -0.5000
vn -0.8660 0.0000 -0.5000
vn -0.5000 0.0000 -0.8660
vn -0.4693 -0.3449 -0.8129
vn -0.8129 -0.3449 -0.4693
vn -0.9386 -0.3449 -0.0000
vn -1.0000 0.0000 -0.0000
vn -1.0000 0.0000 -0.0000
vn -0.8660 0.0000 -0.5000
vn -0.8129 -0.3449 -0.4693
vn -0.9386 -0.3449 -0.0000
vn -0.8129 -0.3449 0.4693
vn -0.8660 0.0000 0.5000
vn -0.8660 0.0000 0.5000
vn -1.0000 0.0000 -0.0000
vn -0.9386 -0.3449 -0.0000
vn -0.8129 -0.3449 0.4693
vn -0.4693 -0.3449 0.8129
vn -0.5000 0.0000 0.8660
vn -0.5000 0.0000 0.8660
vn -0.8660 0.0000 0.5000
vn -0.8129 -0.3449 0.4693
vn -0.4693 -0.3449 0.8129
vn -0.0000 -0.3449 0.9386
vn -0.0000 0.0000 1.0000
vn -0.0000 0.0000 1.0000
vn -0.5000 0.0000 0.8660
vn -0.4693 -0.3449 0.8129
vn -0.0000 -0.3449 0.9386
vn 0.4693 -0.3449 0.8129
vn 0.5000 0.0000 0.8660
vn 0.5000 0.0000 0.8660
vn -0.0000 0.0000 1.0000
vn -0.0000 -0.3449 0.9386
vn 0.4693 -0.3449 0.8129
vn 0.8129 -0.3449 0.4693
vn 0.8660 0.0000 0.5000
vn 0.8660 0.0000 0.5000
vn 0.5000 0.0000 0.8660
vn 0.4693 -0.3449 0.8129
vn 0.8129 -0.3449 0.4693
vn 0.9386 -0.3449 -0.0000
vn 1.0000 0.0000 -0.0000
vn 1.0000 0.0000 -0.0000
vn 0.8660 0.0000 0.5000
vn 0.8129 -0.3449 0.4693
vn 0.9226 -0.3859 0.0000
vn 0.7990 -0.3859 -0.4613
vn 0.8129 -0.3449 -0.4693
vn 0.8129 -0.3449 -0.4693
vn 0.9386 -0.3449 -0.0000
vn 0.9226 -0.3859 0.0000
vn 0.7990 -0.3859 -0.4613
vn 0.4613 -0.3858 -0.7990
vn 0.4693 -0.3449 -0.8129
vn 0.4693 -0.3449 -0.8129
vn 0.8129 -0.3449 -0.4693
vn 0.7990 -0.3859 -0.4613
vn 0.4613 -0.3858 -0.7990
vn 0.0000 -0.3858 -0.9226
vn -0.0000 -0.3449 -0.9386
vn -0.0000 -0.3449 -0.9386
vn 0.4693 -0.3449 -0.8129
vn 0.4613 -0.3858 -0.7990
vn 0.0000 -0.3858 -0.9226
vn -0.4613 -0.3859 -0.7990
vn -0.4693 -0.3449 -0.8129
vn -0.4693 -0.3449 -0.8129
vn -0.0000 -0.3449 -0.9386
vn 0.0000 -0.3858 -0.9226
vn -0.4613 -0.3859 -0.7990
vn -0.7990 -0.3859 -0.4613
vn -0.8129 -0.3449 -0.4693
vn -0.8129 -0.3449 -0.4693
vn -0.4693 -0.3449 -0.8129
vn -0.4613 -0.3859 -0.7990
vn -0.7990 -0.3859 -0.4613
vn -0.9226 -0.3858 -0.0000
vn -0.9386 -0.3449 -0.0000
vn -0.9386 -0.3449 -0.0000
vn -0.8129 -0.3449 -0.4693
vn -0.7990 -0.3859 -0.4613
vn -0.9226 -0.3858 -0.0000
vn -0.7990 -0.3859 0.4613
vn -0.8129 -0.3449 0.4693
vn -0.8129 -0.3449 0.4693
vn -0.9386 -0.3449 -0.0000
vn -0.9226 -0.3858 -0.0000
vn -0.7990 -0.3859 0.4613
vn -0.4613 -0.3858 0.7990
vn -0.4693 -0.3449 0.8129
vn -0.4693 -0.3449 0.8129
vn -0.8129 -0.3449 0.4693
vn -0.7990 -0.3859 0.4613
vn -0.4613 -0.3858 0.7990
vn 0.0000 -0.3858 0.9226
vn -0.0000 -0.3449 0.9386
vn -0.0000 -0.3449 0.9386
vn -0.4693 -0.3449 0.8129
vn -0.4613 -0.3858 0.7990
vn 0.0000 -0.3858 0.9226
vn 0.4613 -0.3858 0.7990
vn 0.4693 -0.3449 0.8129
vn 0.4693 -0.3449 0.8129
vn -0.0000 -0.3449 0.9386
vn 0.0000 -0.3858 0.9226
vn 0.4613 -0.3858 0.7990
vn 0.7990 -0.3859 0.4613
vn 0.8129 -0.3449 0.4693
vn 0.8129 -0.3449 0.4693
vn 0.4693 -0.3449 0.8129
vn 0.4613 -0.3858 0.7990
vn 0.7990 -0.3859 0.4613
vn 0.9226 -0.3859 0.0000
vn 0.9386 -0.3449 -0.0000
vn 0.9386 -0.3449 -0.0000
vn 0.8129 -0.3449 0.4693
vn 0.7990 -0.3859 0.4613
vn -0.0000 1.0000 0.0000
vn -0.0000 1.0000 -0.0000
vn -0.0000 1.0000 -0.0000
vn -0.0000 1.0000 -0.0000
vn 0.0000 1.0000 0.0000
vn -0.0000 1.0000 0.0000
vn -0.0000 1.0000 0.0000
vn -0.0000 1.0000 0.0000
vn -0.0000 1.0000 -0.0000
vn -0.0000 1.0000 -0.0000
vn -0.0000 1.0000 0.0000
vn -0.0000 1.0000 0.0000
vn -0.0000 1.0000 -0.0000
vn -0.0000 1.0000 0.0000
vn -0.0000 1.0000 0.0000
vn -0.0000 1.0000 0.0000
vn -0.0000 1.0000 0.0000
vn -0.0000 1.0000 -0.0000
vn -0.0000 1.0000 -0.0000
vn 0.0000 1.0000 0.0000
vn -0.0000 1.0000 0.0000
vn -0.0000 1.0000 0.0000
vn -0.0000 1.0000 -0.0000
vn -0.0000 1.0000 -0.0000
vn 0.0000 1.0000 0.0000
vn 0.0000 1.0000 0.0000
vn -0.0000 1.0000 -0.0000
vn 0.0000 1.0000 0.0000
vn 0.0000 1.0000 0.0000
vn -0.0000 1.0000 -0.0000
# 420 vertex normals

vt 0.1145 0.7596 0.0000
vt 0.1610 0.7543 0.0000
vt 0.1654 0.7952 0.0000
vt 0.1214 0.8002 0.0000
vt 0.0671 0.7683 0.0000
vt 0.0772 0.8076 0.0000
vt 0.0201 0.7818 0.0000
vt 0.0323 0.8212 0.0000
vt 0.5285 0.7690 0.0000
vt 0.5755 0.7827 0.0000
vt 0.5632 0.8220 0.0000
vt 0.5183 0.8083 0.0000
vt 0.4811 0.7602 0.0000
vt 0.4741 0.8007 0.0000
vt 0.4346 0.7547 0.0000
vt 0.4301 0.7957 0.0000
vt 0.3888 0.7511 0.0000
vt 0.3860 0.7922 0.0000
vt 0.3433 0.7489 0.0000
vt 0.3419 0.7900 0.0000
vt 0.2978 0.7482 0.0000
vt 0.2978 0.7892 0.0000
vt 0.2524 0.7488 0.0000
vt 0.2536 0.7899 0.0000
vt 0.2068 0.7508 0.0000
vt 0.2095 0.7919 0.0000
vt 0.1693 0.8297 0.0000
vt 0.1274 0.8345 0.0000
vt 0.0870 0.8404 0.0000
vt 0.0497 0.8487 0.0000
vt 0.5457 0.8495 0.0000
vt 0.5084 0.8411 0.0000
vt 0.4680 0.8350 0.0000
vt 0.4261 0.8301 0.0000
vt 0.3836 0.8264 0.0000
vt 0.3407 0.8242 0.0000
vt 0.2977 0.8234 0.0000
vt 0.2548 0.8240 0.0000
vt 0.2119 0.8262 0.0000
vt 0.1771 0.9145 0.0000
vt 0.1373 0.9195 0.0000
vt 0.0982 0.9249 0.0000
vt 0.0606 0.9275 0.0000
vt 0.5345 0.9283 0.0000
vt 0.4969 0.9256 0.0000
vt 0.4579 0.9200 0.0000
vt 0.4181 0.9149 0.0000
vt 0.3779 0.9111 0.0000
vt 0.3378 0.9088 0.0000
vt 0.2976 0.9080 0.0000
vt 0.2574 0.9087 0.0000
vt 0.2172 0.9108 0.0000
vt 0.2867 0.1185 0.0000
vt 0.3810 0.1185 0.0000
vt 0.4155 0.1530 0.0000
vt 0.2522 0.1530 0.0000
vt 0.4281 0.2001 0.0000
vt 0.2396 0.2001 0.0000
vt 0.4155 0.2472 0.0000
vt 0.2522 0.2472 0.0000
vt 0.3810 0.2817 0.0000
vt 0.2867 0.2817 0.0000
vt 0.3339 0.2944 0.0000
vt 0.3339 0.1058 0.0000
vt 0.1145 0.7596 0.0000
vt 0.1610 0.7543 0.0000
vt 0.1654 0.7952 0.0000
vt 0.1214 0.8002 0.0000
vt 0.0671 0.7683 0.0000
vt 0.0772 0.8076 0.0000
vt 0.0201 0.7818 0.0000
vt 0.0323 0.8212 0.0000
vt 0.5285 0.7690 0.0000
vt 0.5755 0.7827 0.0000
vt 0.5632 0.8220 0.0000
vt 0.5183 0.8083 0.0000
vt 0.4811 0.7602 0.0000
vt 0.4741 0.8007 0.0000
vt 0.4346 0.7547 0.0000
vt 0.4301 0.7957 0.0000
vt 0.3888 0.7511 0.0000
vt 0.3860 0.7922 0.0000
vt 0.3433 0.7489 0.0000
vt 0.3419 0.7900 0.0000
vt 0.2978 0.7482 0.0000
vt 0.2978 0.7892 0.0000
vt 0.2524 0.7488 0.0000
vt 0.2536 0.7899 0.0000
vt 0.2068 0.7508 0.0000
vt 0.2095 0.7919 0.0000
vt 0.1693 0.8297 0.0000
vt 0.1274 0.8345 0.0000
vt 0.0870 0.8404 0.0000
vt 0.0497 0.8487 0.0000
vt 0.5457 0.8495 0.0000
vt 0.5084 0.8411 0.0000
vt 0.4680 0.8350 0.0000
vt 0.4261 0.8301 0.0000
vt 0.3836 0.8264 0.0000
vt 0.3407 0.8242 0.0000
vt 0.2977 0.8234 0.0000
vt 0.2548 0.8240 0.0000
vt 0.2119 0.8262 0.0000
vt 0.2867 0.1185 0.0000
vt 0.3810 0.1185 0.0000
vt 0.4155 0.1530 0.0000
vt 0.2522 0.1530 0.0000
vt 0.4281 0.2001 0.0000
vt 0.2396 0.2001 0.0000
vt 0.4155 0.2472 0.0000
vt 0.2522 0.2472 0.0000
vt 0.3810 0.2817 0.0000
vt 0.2867 0.2817 0.0000
vt 0.3339 0.2944 0.0000
vt 0.3339 0.1058 0.0000
# 115 texture coords

g Object03
usemtl wire_000000000
s 1
f 3/3/1 4/4/2 1/1/3 
f 1/1/4 2/2/5 3/3/6 
f 4/4/7 6/6/8 5/5/9 
f 5/5/10 1/1/11 4/4/12 
f 6/6/13 8/8/14 7/7/15 
f 7/7/16 5/5/17 6/6/18 
f 8/11/19 10/12/20 9/9/21 
f 9/9/22 7/10/23 8/11/24 
f 10/12/25 12/14/26 11/13/27 
f 11/13/28 9/9/29 10/12/30 
f 12/14/31 14/16/32 13/15/33 
f 13/15/34 11/13/35 12/14/36 
f 14/16/37 16/18/38 15/17/39 
f 15/17/40 13/15/41 14/16/42 
f 16/18/43 18/20/44 17/19/45 
f 17/19/46 15/17/47 16/18/48 
f 18/20/49 20/22/50 19/21/51 
f 19/21/52 17/19/53 18/20/54 
f 20/22/55 22/24/56 21/23/57 
f 21/23/58 19/21/59 20/22/60 
f 22/24/61 24/26/62 23/25/63 
f 23/25/64 21/23/65 22/24/66 
f 24/26/67 3/3/68 2/2/69 
f 2/2/70 23/25/71 24/26/72 
f 25/27/73 26/28/74 4/4/75 
f 4/4/76 3/3/77 25/27/78 
f 26/28/79 27/29/80 6/6/81 
f 6/6/82 4/4/83 26/28/84 
f 27/29/85 28/30/86 8/8/87 
f 8/8/88 6/6/89 27/29/90 
f 28/31/91 29/32/92 10/12/93 
f 10/12/94 8/11/95 28/31/96 
f 29/32/97 30/33/98 12/14/99 
f 12/14/100 10/12/101 29/32/102 
f 30/33/103 31/34/104 14/16/105 
f 14/16/106 12/14/107 30/33/108 
f 31/34/109 32/35/110 16/18/111 
f 16/18/112 14/16/113 31/34/114 
f 32/35/115 33/36/116 18/20/117 
f 18/20/118 16/18/119 32/35/120 
f 33/36/121 34/37/122 20/22/123 
f 20/22/124 18/20/125 33/36/126 
f 34/37/127 35/38/128 22/24/129 
f 22/24/130 20/22/131 34/37/132 
f 35/38/133 36/39/134 24/26/135 
f 24/26/136 22/24/137 35/38/138 
f 36/39/139 25/27/140 3/3/141 
f 3/3/142 24/26/143 36/39/144 
f 38/41/145 26/28/146 25/27/147 
f 25/27/148 37/40/149 38/41/150 
f 39/42/151 27/29/152 26/28/153 
f 26/28/154 38/41/155 39/42/156 
f 40/43/157 28/30/158 27/29/159 
f 27/29/160 39/42/161 40/43/162 
f 41/45/163 29/32/164 28/31/165 
f 28/31/166 40/44/167 41/45/168 
f 41/45/169 42/46/170 30/33/171 
f 30/33/172 29/32/173 41/45/174 
f 44/48/175 32/35/176 31/34/177 
f 31/34/178 43/47/179 44/48/180 
f 44/48/181 45/49/182 33/36/183 
f 33/36/184 32/35/185 44/48/186 
f 46/50/187 34/37/188 33/36/189 
f 33/36/190 45/49/191 46/50/192 
f 47/51/193 35/38/194 34/37/195 
f 34/37/196 46/50/197 47/51/198 
f 37/40/199 25/27/200 36/39/201 
f 36/39/202 48/52/203 37/40/204 
f 30/33/205 42/46/206 43/47/207 
f 43/47/208 31/34/209 30/33/210 
f 47/51/211 48/52/212 36/39/213 
f 36/39/214 35/38/215 47/51/216 
s 2
f 23/55/217 15/56/218 17/53/219 
f 17/53/220 21/54/221 23/55/222 
f 2/57/223 13/58/224 15/56/225 
f 15/56/226 23/55/227 2/57/228 
f 1/59/229 11/60/230 13/58/231 
f 13/58/232 2/57/233 1/59/234 
f 5/61/235 9/62/236 11/60/237 
f 11/60/238 1/59/239 5/61/240 
f 7/63/241 9/62/242 5/61/243 
f 19/64/244 21/54/245 17/53/246 
s 1
f 51/67/247 52/68/248 49/65/249 
f 49/65/250 50/66/251 51/67/252 
f 52/68/253 54/70/254 53/69/255 
f 53/69/256 49/65/257 52/68/258 
f 54/70/259 56/72/260 55/71/261 
f 55/71/262 53/69/263 54/70/264 
f 56/75/265 58/76/266 57/73/267 
f 57/73/268 55/74/269 56/75/270 
f 58/76/271 60/78/272 59/77/273 
f 59/77/274 57/73/275 58/76/276 
f 60/78/277 62/80/278 61/79/279 
f 61/79/280 59/77/281 60/78/282 
f 62/80/283 64/82/284 63/81/285 
f 63/81/286 61/79/287 62/80/288 
f 64/82/289 66/84/290 65/83/291 
f 65/83/292 63/81/293 64/82/294 
f 66/84/295 68/86/296 67/85/297 
f 67/85/298 65/83/299 66/84/300 
f 68/86/301 70/88/302 69/87/303 
f 69/87/304 67/85/305 68/86/306 
f 70/88/307 72/90/308 71/89/309 
f 71/89/310 69/87/311 70/88/312 
f 72/90/313 51/67/314 50/66/315 
f 50/66/316 71/89/317 72/90/318 
f 43/91/319 42/92/320 52/68/321 
f 52/68/322 51/67/323 43/91/324 
f 42/92/325 41/93/326 54/70/327 
f 54/70/328 52/68/329 42/92/330 
f 41/93/331 40/94/332 56/72/333 
f 56/72/334 54/70/335 41/93/336 
f 40/95/337 39/96/338 58/76/339 
f 58/76/340 56/75/341 40/95/342 
f 39/96/343 38/97/344 60/78/345 
f 60/78/346 58/76/347 39/96/348 
f 38/97/349 37/98/350 62/80/351 
f 62/80/352 60/78/353 38/97/354 
f 37/98/355 48/99/356 64/82/357 
f 64/82/358 62/80/359 37/98/360 
f 48/99/361 47/100/362 66/84/363 
f 66/84/364 64/82/365 48/99/366 
f 47/100/367 46/101/368 68/86/369 
f 68/86/370 66/84/371 47/100/372 
f 46/101/373 45/102/374 70/88/375 
f 70/88/376 68/86/377 46/101/378 
f 45/102/379 44/103/380 72/90/381 
f 72/90/382 70/88/383 45/102/384 
f 44/103/385 43/91/386 51/67/387 
f 51/67/388 72/90/389 44/103/390 
s 2
f 71/106/391 63/107/392 65/104/393 
f 65/104/394 69/105/395 71/106/396 
f 50/108/397 61/109/398 63/107/399 
f 63/107/400 71/106/401 50/108/402 
f 49/110/403 59/111/404 61/109/405 
f 61/109/406 50/108/407 49/110/408 
f 53/112/409 57/113/410 59/111/411 
f 59/111/412 49/110/413 53/112/414 
f 55/114/415 57/113/416 53/112/417 
f 67/115/418 69/105/419 65/104/420 
# 140 faces

