# 3ds Max Wavefront OBJ Exporter v0.94b - (c)2007 guruware
# File Created: 30.08.2009 18:56:54

mtllib pyramid.mtl

#
# object Object07
#

v  -10.0177 -10.0177 -6.4223
v  -10.0177 10.0177 -6.4223
v  10.0177 10.0177 -6.4223
v  10.0177 -10.0177 -6.4223
v  -10.0177 -10.0177 5.6385
v  -10.0177 10.0177 5.6385
v  -0.0001 0.0000 5.3892
v  6.2729 6.2729 6.4223
v  -6.2729 6.2729 6.4223
v  10.0177 -10.0177 5.6385
v  10.0177 10.0177 5.6385
v  6.2729 -6.2729 6.4223
v  -6.2729 -6.2729 6.4223
# 13 vertices

vn 0.0000 0.0000 -1.0000
vn 0.0000 0.0000 -1.0000
vn 0.0000 0.0000 -1.0000
vn 0.0000 0.0000 -1.0000
vn 0.0000 0.0000 -1.0000
vn 0.0000 0.0000 -1.0000
vn 0.0000 -1.0000 0.0000
vn 0.0000 -1.0000 0.0000
vn 0.0000 -1.0000 0.0000
vn 0.0000 -1.0000 0.0000
vn 0.0000 -1.0000 0.0000
vn 0.0000 -1.0000 0.0000
vn 1.0000 0.0000 0.0000
vn 1.0000 0.0000 0.0000
vn 1.0000 0.0000 0.0000
vn 1.0000 0.0000 0.0000
vn 1.0000 0.0000 0.0000
vn 1.0000 0.0000 0.0000
vn 0.0000 1.0000 0.0000
vn 0.0000 1.0000 0.0000
vn 0.0000 1.0000 0.0000
vn 0.0000 1.0000 0.0000
vn 0.0000 1.0000 0.0000
vn 0.0000 1.0000 0.0000
vn -1.0000 0.0000 0.0000
vn -1.0000 0.0000 0.0000
vn -1.0000 0.0000 0.0000
vn -1.0000 0.0000 0.0000
vn -1.0000 0.0000 0.0000
vn -1.0000 0.0000 0.0000
vn 0.0000 -0.1625 0.9867
vn 0.0000 -0.1625 0.9867
vn 0.0000 -0.1625 0.9867
vn -0.1625 0.0000 0.9867
vn -0.1625 0.0000 0.9867
vn -0.1625 0.0000 0.9867
vn 0.1625 0.0000 0.9867
vn 0.1625 0.0000 0.9867
vn 0.1625 0.0000 0.9867
vn 0.0000 0.1625 0.9867
vn 0.0000 0.1625 0.9867
vn 0.0000 0.1625 0.9867
vn 0.1035 -0.1035 0.9892
vn -0.1035 -0.1035 0.9892
vn -0.1035 -0.1035 0.9892
vn -0.1035 -0.1035 0.9892
vn 0.1035 -0.1035 0.9892
vn 0.1035 -0.1035 0.9892
vn 0.1035 0.1035 0.9892
vn 0.1035 -0.1035 0.9892
vn 0.1035 -0.1035 0.9892
vn 0.1035 -0.1035 0.9892
vn 0.1035 0.1035 0.9892
vn 0.1035 0.1035 0.9892
vn -0.1035 0.1035 0.9892
vn 0.1035 0.1035 0.9892
vn 0.1035 0.1035 0.9892
vn 0.1035 0.1035 0.9892
vn -0.1035 0.1035 0.9892
vn -0.1035 0.1035 0.9892
vn -0.1035 -0.1035 0.9892
vn -0.1035 0.1035 0.9892
vn -0.1035 0.1035 0.9892
vn -0.1035 0.1035 0.9892
vn -0.1035 -0.1035 0.9892
vn -0.1035 -0.1035 0.9892
# 66 vertex normals

vt 0.5933 0.7659 0.0000
vt 0.5121 0.7658 0.0000
vt 0.5124 0.6310 0.0000
vt 0.5935 0.6311 0.0000
vt 0.5937 0.5500 0.0000
vt 0.7285 0.5503 0.0000
vt 0.7283 0.6314 0.0000
vt 0.8095 0.6316 0.0000
vt 0.8092 0.7664 0.0000
vt 0.7281 0.7662 0.0000
vt 0.7279 0.8473 0.0000
vt 0.5931 0.8471 0.0000
vt 0.0934 0.1046 0.0000
vt 0.0512 0.0624 0.0000
vt 0.1356 0.0624 0.0000
vt 0.0512 0.1468 0.0000
vt 0.1356 0.1468 0.0000
vt 0.1610 0.1722 0.0000
vt 0.0258 0.1722 0.0000
vt 0.1610 0.0370 0.0000
vt 0.0258 0.0370 0.0000
# 21 texture coords

g Object07
usemtl wire_143224087
s 1
f 3/7/1 4/10/2 1/1/3 
f 1/1/4 2/4/5 3/7/6 
s 2
f 10/11/7 5/12/8 1/1/9 
f 1/1/10 4/10/11 10/11/12 
s 4
f 11/8/13 10/9/14 4/10/15 
f 4/10/16 3/7/17 11/8/18 
s 2
f 6/5/19 11/6/20 3/7/21 
f 3/7/22 2/4/23 6/5/24 
s 4
f 5/2/25 6/3/26 2/4/27 
f 2/4/28 1/1/29 5/2/30 
s 64
f 7/13/31 8/14/32 9/15/33 
s 128
f 12/16/34 8/14/35 7/13/36 
s 16
f 9/15/37 13/17/38 7/13/39 
s 8
f 7/13/40 13/17/41 12/16/42 
s 1
f 12/16/43 13/17/44 5/18/45 
f 5/18/46 10/19/47 12/16/48 
f 8/14/49 12/16/50 10/19/51 
f 10/19/52 11/21/53 8/14/54 
f 9/15/55 8/14/56 11/21/57 
f 11/21/58 6/20/59 9/15/60 
f 13/17/61 9/15/62 6/20/63 
f 6/20/64 5/18/65 13/17/66 
# 22 faces

